<?xml version="1.0" encoding="UTF-8"?><svg id="Layer_2" xmlns="http://www.w3.org/2000/svg" viewBox="0 0 592.45 1276.5"><g id="Layer_1-2"><path d="m18.8,930.02c.75,0,.96.22.96,1.01v1.75c0,.79-.21,1.01-.96,1.01H1.22c-.75,0-.96-.22-.96-1.01v-1.75c0-.79.21-1.01.96-1.01h17.58Z"/><path d="m12.35,862.06v.33c0,.79-.21,1.01-.96,1.01h-1.72c-.75,0-.96-.22-.96-1.01v-3.47c0-.79.21-1.01.96-1.01h4.63c4.19,0,5.72,1.31,5.72,5.28s-1.53,5.28-5.72,5.28H5.72c-4.19,0-5.72-1.31-5.72-5.28s1.53-5.22,5.72-5.22h.13c.75,0,.96.22.96,1.01v1.75c0,.79-.21,1.01-.96,1.01h-.75c-1.04,0-1.46.46-1.46,1.42s.42,1.42,1.46,1.42h9.83c1.04,0,1.46-.49,1.46-1.5s-.42-1.5-1.46-1.5h-2.11c-.36,0-.47.11-.47.49Z"/><path d="m20.02,791.43c0,3.96-1.59,5.28-5.98,5.28H5.98c-4.37,0-5.98-1.31-5.98-5.28s1.61-5.28,5.98-5.28h8.06c4.39,0,5.98,1.31,5.98,5.28Zm-3.64,0c0-.96-.42-1.39-1.46-1.39H5.23c-1.14,0-1.59.44-1.59,1.39s.44,1.39,1.59,1.39h9.7c1.04,0,1.46-.44,1.46-1.39Z"/><path d="m15.76,717.75c-.91,0-1.2.05-1.9.46l-1.12.66c-.47.3-.55.46-.55.96v.49c0,.38.1.49.47.49h6.14c.75,0,.96.22.96,1.01v1.75c0,.79-.21,1.01-.96,1.01H1.22c-.75,0-.96-.22-.96-1.01v-3.61c0-4.16,1.35-6.04,4.68-6.04h1.87c1.87,0,3.09.3,3.95,1.42.08.14.16.16.23.16s.16-.03.29-.11l1.33-.77c1.01-.57,1.43-.66,2.81-.66h3.38c.75,0,.96.22.96,1.01v1.75c0,.79-.21,1.01-.96,1.01h-3.04Zm-7.59,3.06c.36,0,.47-.11.47-.49v-.57c0-1.29-.55-1.94-1.79-1.94h-1.35c-1.22,0-1.72.6-1.72,1.94v.57c0,.38.1.49.47.49h3.93Z"/><path d="m18.8,648.69c.75,0,.96.22.96,1.01v1.75c0,.79-.21,1.01-.96,1.01H1.22c-.75,0-.96-.22-.96-1.01v-1.75c0-.79.21-1.01.96-1.01h17.58Z"/><path d="m10.22,579.23c1.56-1.83,2.5-2.24,4.24-2.24h.47c3.28,0,5.1,1.31,5.1,5.28s-1.53,5.28-5.72,5.28h-.52c-.75,0-.96-.22-.96-1.01v-1.86c0-.79.21-1.01.96-1.01h1.14c1.04,0,1.46-.44,1.46-1.39s-.39-1.39-1.33-1.39h-.49c-.73,0-1.09.16-1.95,1.18l-2.78,3.28c-1.53,1.83-2.42,2.21-4.16,2.21h-.57c-3.28,0-5.1-1.31-5.1-5.28s1.53-5.28,5.72-5.28h.52c.75,0,.96.22.96,1.01v1.86c0,.79-.21,1.01-.96,1.01h-1.14c-1.04,0-1.46.44-1.46,1.39s.39,1.39,1.33,1.39h.44c.75,0,1.12-.16,1.79-.93l3.02-3.5Z"/><path d="m13.83,441.74c4.34,0,6.19,1.34,6.19,5.36,0,3.77-1.59,5.36-5.62,5.36h-.88c-2.05,0-3.07-.3-3.87-1.37l-.42-.55c-.08-.08-.1-.11-.18-.11s-.1.03-.16.11l-.36.57c-.65,1.04-1.17,1.34-3.07,1.34h-.62c-3.15,0-4.84-1.39-4.84-5.2s1.43-5.14,4.94-5.14h.62c.75,0,.96.22.96,1.01v1.75c0,.79-.21,1.01-.96,1.01h-.6c-.96,0-1.33.44-1.33,1.34s.42,1.34,1.46,1.34h.55c1.79,0,2.57-1.12,2.57-3.77v-3.72c0-.79.21-1.01.96-1.01h1.46c.75,0,.96.22.96,1.01v.16c0,.38.1.49.47.49h1.77Zm-2.24,5.33c0,1.04.44,1.5,1.59,1.5h1.74c1.04,0,1.46-.46,1.46-1.5s-.49-1.5-1.72-1.5h-2.6c-.36,0-.47.11-.47.49v1.01Z"/><path d="m9.46,306.82l8.89-2.57c.94-.27,1.4.03,1.4,1.09v1.34c0,.82-.21,1.09-.86,1.29l-6.73,1.97c-.29.08-.31.22-.1.46l1.01,1.09c.26.3.36.33.78.33h4.94c.75,0,.96.22.96,1.01v1.75c0,.79-.21,1.01-.96,1.01H1.22c-.75,0-.96-.22-.96-1.01v-1.7c0-.79.21-1.01.96-1.01h6.68c.21,0,.26-.08.26-.22s-.03-.22-.18-.41l-.99-1.15c-.96-1.12-1.33-1.29-3.15-1.29H1.22c-.75,0-.96-.22-.96-1.01v-1.75c0-.79.21-1.01.96-1.01h2.63c3.02,0,3.54.16,5.04,1.61.21.22.31.25.57.16Z"/><path d="m21.11,237.2c-.89-.17-1.18-.17-1.95.1l-1.22.43c-.52.21-.62.35-.72.84l-.09.48c-.07.38,0,.5.37.57l6.02,1.16c.74.14.9.4.75,1.17l-.33,1.72c-.15.78-.4.95-1.14.81l-17.26-3.32c-.74-.14-.9-.4-.75-1.17l.68-3.54c.79-4.08,2.47-5.68,5.74-5.05l1.84.35c1.84.35,2.98.88,3.61,2.14.05.15.12.19.2.21.08.01.16,0,.3-.05l1.45-.5c1.11-.37,1.53-.37,2.88-.11l3.32.64c.74.14.9.4.75,1.17l-.33,1.72c-.15.78-.4.95-1.14.81l-2.99-.58Zm-8.03,1.57c.36.07.48-.02.55-.4l.11-.56c.24-1.26-.17-2.01-1.39-2.25l-1.33-.25c-1.2-.23-1.8.27-2.05,1.58l-.11.56c-.07.38,0,.5.37.57l3.86.74Z"/><path d="m45.57,173.25c.68.32.78.61.44,1.33l-.74,1.58c-.34.72-.62.83-1.3.51l-15.91-7.48c-.68-.32-.78-.61-.44-1.33l.74-1.58c.34-.72.62-.83,1.3-.51l15.91,7.48Z"/><path d="m75.87,110.3c2.37-.43,3.35-.16,4.7.94l.36.3c2.54,2.07,3.12,4.24.61,7.31-2.51,3.07-4.52,3.12-7.77.48l-.4-.33c-.58-.48-.61-.78-.11-1.39l1.18-1.44c.5-.62.8-.65,1.38-.18l.89.72c.81.66,1.41.58,2.01-.16.6-.74.58-1.33-.15-1.92l-.38-.31c-.56-.46-.95-.56-2.25-.32l-4.23.78c-2.35.45-3.27.19-4.62-.91l-.44-.36c-2.54-2.07-3.12-4.24-.61-7.31s4.53-3.12,7.77-.48l.4.33c.58.48.61.78.11,1.39l-1.18,1.44c-.5.62-.8.65-1.38.18l-.89-.72c-.8-.66-1.4-.58-2.01.16-.6.74-.58,1.33.15,1.92l.34.28c.58.48.97.58,1.98.41l4.55-.81Z"/><path d="m123.73,56.98c-.31.23-.33.38-.12.67l8.57,11.61c.45.61.4.9-.24,1.38l-1.41,1.04c-.64.47-.94.43-1.38-.17l-8.57-11.61c-.22-.29-.37-.31-.67-.08l-1.37,1.01c-.64.47-.94.43-1.38-.17l-1.02-1.38c-.45-.61-.39-.9.24-1.38l6.56-4.84c.64-.47.94-.43,1.39.17l1.02,1.38c.45.61.39.9-.24,1.38l-1.36,1.01Z"/><path d="m189.93,37.07c.29.7.17.97-.56,1.28l-1.62.67c-.73.3-1.01.2-1.3-.5l-6.76-16.23c-.29-.7-.17-.97.56-1.28l1.62-.67c.73-.3,1.01-.2,1.3.5l6.76,16.23Z"/><path d="m253.88,7.72c.16-.02.21-.11.18-.29l-.79-5.43c-.11-.75.08-.98.86-1.1l1.65-.24c.79-.11,1.03.06,1.14.81l2.53,17.39c.11.75-.08.98-.86,1.1l-1.65.24c-.78.11-1.03-.06-1.14-.81l-.51-3.53c-.18-1.21-.43-1.62-1.01-2.38l-3.16-4.09c-.17-.21-.23-.26-.39-.23-.16.02-.21.11-.18.29l1.52,10.47c.11.75-.08.98-.86,1.1l-1.65.24c-.78.11-1.03-.06-1.14-.81l-2.53-17.39c-.11-.75.08-.98.86-1.1l1.06-.15c1-.15,1.4-.05,2.12.93l3.56,4.74c.17.21.23.25.39.23Z"/><path d="m322.04,19.19l-1.74-.2c-.79-.09-.98-.32-.9-1.07l.74-6.61c.13-1.14.23-1.6.68-2.59l3.36-7.6c.45-1.05.74-1.22,2.16-1.07l.98.11c1.41.16,1.66.4,1.87,1.52l1.59,8.16c.21,1.04.21,1.54.08,2.68l-.74,6.61c-.08.75-.32.93-1.11.84l-1.74-.2c-.79-.09-.98-.32-.9-1.07l.38-3.41c.04-.36-.06-.48-.44-.52l-2.23-.25c-.38-.04-.5.05-.54.41l-.38,3.41c-.08.75-.32.93-1.11.84Zm5.25-8.3c.01-.13,0-.26-.01-.39l-.69-5.13c-.03-.26-.07-.32-.32-.35-.25-.03-.3.02-.39.27l-1.81,4.85c-.04.13-.08.25-.1.38-.03.23.13.35.42.39l2.39.27c.3.03.47-.05.5-.28Z"/><path d="m447.73,63.9c-.42.62-.72.67-1.38.23l-1.45-.98c-.66-.45-.72-.74-.3-1.36l9.87-14.54c.42-.62.72-.67,1.38-.23l6.09,4.13c.66.45.72.74.3,1.36l-.96,1.42c-.42.62-.72.67-1.38.23l-3.39-2.3c-.32-.21-.47-.19-.67.11l-1.9,2.8c-.19.28-.17.45.14.66l2.44,1.66c.66.45.72.74.3,1.37l-.96,1.42c-.42.62-.72.67-1.33.26l-2.49-1.69c-.32-.21-.47-.19-.67.11l-3.64,5.36Z"/><path d="m499.12,110.73c-2.62-2.97-2.3-5.01.99-7.91l6.04-5.33c3.28-2.89,5.35-2.97,7.98,0s2.28,5.02-.99,7.91l-6.04,5.33c-3.3,2.91-5.35,2.97-7.98,0Zm2.73-2.41c.63.72,1.24.77,2.01.08l7.27-6.41c.86-.76.9-1.38.27-2.1-.63-.72-1.25-.75-2.11,0l-7.27,6.41c-.78.69-.8,1.29-.17,2.01Z"/><path d="m543.18,168.77c.81-.41,1.04-.59,1.49-1.27l.71-1.09c.28-.48.28-.66.06-1.1l-.22-.44c-.17-.34-.31-.39-.64-.23l-5.48,2.75c-.67.34-.96.24-1.31-.47l-.79-1.56c-.36-.71-.27-1,.41-1.34l15.71-7.88c.67-.34.96-.24,1.31.47l1.62,3.23c1.86,3.72,1.5,6.01-1.47,7.5l-1.67.84c-1.67.84-2.9,1.12-4.17.5-.13-.09-.21-.08-.28-.04-.07.03-.13.09-.21.23l-.84,1.28c-.65.97-.98,1.23-2.21,1.85l-3.02,1.52c-.67.34-.96.24-1.31-.47l-.79-1.56c-.36-.71-.27-1,.41-1.34l2.72-1.36Zm5.41-6.14c-.33.16-.37.31-.2.65l.26.51c.58,1.15,1.36,1.49,2.47.93l1.21-.61c1.09-.55,1.26-1.31.66-2.5l-.26-.51c-.17-.34-.31-.39-.64-.23l-3.51,1.76Z"/><path d="m574.01,231.97c-.33.07-.44.2-.36.58l.7,3.32c.16.78,0,1.03-.73,1.19l-1.68.35c-.74.16-.99-.01-1.14-.74l-.71-3.37c-.08-.38-.2-.46-.56-.39l-3.71.78c-.33.07-.44.2-.36.58l.77,3.64c.16.78,0,1.03-.73,1.19l-1.68.35c-.74.16-.99-.01-1.15-.79l-1.44-6.83c-.16-.78,0-1.03.73-1.19l17.2-3.63c.74-.16.99.01,1.15.79l1.44,6.83c.16.78,0,1.03-.73,1.19l-1.68.35c-.74.16-.99-.01-1.15-.79l-.77-3.64c-.08-.38-.2-.46-.56-.39l-2.85.6Z"/><path d="m569.43,301.04l9.05-2.02c1.4-.3,2.03-.33,3.33-.33h4.52c.75,0,.96.22.96,1.01v1.75c0,.79-.21,1.01-.96,1.01h-5.56c-.36,0-.7.03-1.09.08l-6.55,1.15c-.31.05-.39.14-.39.38s.08.33.39.38l6.55,1.15c.39.05.73.08,1.09.08h5.56c.75,0,.96.22.96,1.01v1.75c0,.79-.21,1.01-.96,1.01h-4.52c-1.09,0-1.77.03-3.33-.33l-9.05-2.02c-1.35-.3-1.64-.68-1.64-2.27v-1.53c0-1.59.29-1.97,1.64-2.27Z"/><path d="m580.27,374.29c-.34,0-.47.11-.47.49v3.39c0,.79-.21,1.01-.96,1.01h-1.72c-.75,0-.96-.22-.96-.96v-3.45c0-.38-.1-.49-.47-.49h-3.8c-.34,0-.47.11-.47.49v3.72c0,.79-.21,1.01-.96,1.01h-1.72c-.75,0-.96-.22-.96-1.01v-6.97c0-.79.21-1.01.96-1.01h17.58c.75,0,.96.22.96,1.01v6.97c0,.79-.21,1.01-.96,1.01h-1.72c-.75,0-.96-.22-.96-1.01v-3.72c0-.38-.1-.49-.47-.49h-2.91Z"/><path d="m571.79,447.45c.91,0,1.2-.05,1.9-.46l1.12-.66c.47-.3.55-.46.55-.96v-.49c0-.38-.1-.49-.47-.49h-6.14c-.75,0-.96-.22-.96-1.01v-1.75c0-.79.21-1.01.96-1.01h17.58c.75,0,.96.22.96,1.01v3.61c0,4.16-1.35,6.04-4.68,6.04h-1.87c-1.87,0-3.09-.3-3.95-1.42-.08-.14-.16-.16-.23-.16s-.16.03-.29.11l-1.33.77c-1.01.57-1.43.66-2.81.66h-3.38c-.75,0-.96-.22-.96-1.01v-1.75c0-.79.21-1.01.96-1.01h3.04Zm7.59-3.06c-.36,0-.47.11-.47.49v.57c0,1.29.55,1.94,1.79,1.94h1.35c1.22,0,1.72-.6,1.72-1.94v-.57c0-.38-.1-.49-.47-.49h-3.93Z"/><path d="m573.72,586.76c-4.34,0-6.19-1.34-6.19-5.36,0-3.77,1.59-5.36,5.62-5.36h.88c2.05,0,3.07.3,3.87,1.37l.42.55c.08.08.1.11.18.11s.1-.03.16-.11l.36-.57c.65-1.04,1.17-1.34,3.07-1.34h.62c3.15,0,4.84,1.39,4.84,5.2s-1.43,5.14-4.94,5.14h-.62c-.75,0-.96-.22-.96-1.01v-1.75c0-.79.21-1.01.96-1.01h.6c.96,0,1.33-.44,1.33-1.34s-.42-1.34-1.46-1.34h-.55c-1.79,0-2.57,1.12-2.57,3.77v3.72c0,.79-.21,1.01-.96,1.01h-1.46c-.75,0-.96-.22-.96-1.01v-.16c0-.38-.1-.49-.47-.49h-1.77Zm2.24-5.33c0-1.04-.44-1.5-1.59-1.5h-1.74c-1.04,0-1.46.46-1.46,1.5s.49,1.5,1.72,1.5h2.6c.36,0,.47-.11.47-.49v-1.01Z"/><path d="m580.27,716.67c-.34,0-.47.11-.47.49v3.39c0,.79-.21,1.01-.96,1.01h-1.72c-.75,0-.96-.22-.96-.96v-3.45c0-.38-.1-.49-.47-.49h-3.8c-.34,0-.47.11-.47.49v3.72c0,.79-.21,1.01-.96,1.01h-1.72c-.75,0-.96-.22-.96-1.01v-6.97c0-.79.21-1.01.96-1.01h17.58c.75,0,.96.22.96,1.01v6.97c0,.79-.21,1.01-.96,1.01h-1.72c-.75,0-.96-.22-.96-1.01v-3.72c0-.38-.1-.49-.47-.49h-2.91Z"/><path d="m569.43,784.54l9.05-2.02c1.4-.3,2.03-.33,3.33-.33h4.52c.75,0,.96.22.96,1.01v1.75c0,.79-.21,1.01-.96,1.01h-5.56c-.36,0-.7.03-1.09.08l-6.55,1.15c-.31.05-.39.14-.39.38s.08.33.39.38l6.55,1.15c.39.05.73.08,1.09.08h5.56c.75,0,.96.22.96,1.01v1.75c0,.79-.21,1.01-.96,1.01h-4.52c-1.09,0-1.77.03-3.33-.33l-9.05-2.02c-1.35-.3-1.64-.68-1.64-2.27v-1.53c0-1.59.29-1.97,1.64-2.27Z"/><path d="m580.27,857.77c-.34,0-.47.11-.47.49v3.39c0,.79-.21,1.01-.96,1.01h-1.72c-.75,0-.96-.22-.96-.96v-3.45c0-.38-.1-.49-.47-.49h-3.8c-.34,0-.47.11-.47.49v3.72c0,.79-.21,1.01-.96,1.01h-1.72c-.75,0-.96-.22-.96-1.01v-6.97c0-.79.21-1.01.96-1.01h17.58c.75,0,.96.22.96,1.01v6.97c0,.79-.21,1.01-.96,1.01h-1.72c-.75,0-.96-.22-.96-1.01v-3.72c0-.38-.1-.49-.47-.49h-2.91Z"/><path d="m571.79,930.92c.91,0,1.2-.05,1.9-.46l1.12-.66c.47-.3.55-.46.55-.96v-.49c0-.38-.1-.49-.47-.49h-6.14c-.75,0-.96-.22-.96-1.01v-1.75c0-.79.21-1.01.96-1.01h17.58c.75,0,.96.22.96,1.01v3.61c0,4.16-1.35,6.04-4.68,6.04h-1.87c-1.87,0-3.09-.3-3.95-1.42-.08-.14-.16-.16-.23-.16s-.16.03-.29.11l-1.33.77c-1.01.57-1.43.66-2.81.66h-3.38c-.75,0-.96-.22-.96-1.01v-1.75c0-.79.21-1.01.96-1.01h3.04Zm7.59-3.06c-.36,0-.47.11-.47.49v.57c0,1.29.55,1.94,1.79,1.94h1.35c1.22,0,1.72-.6,1.72-1.94v-.57c0-.38-.1-.49-.47-.49h-3.93Z"/><path d="m231.76,1276.3c-1.04,0-1.34-.3-1.46-1.24l-1.54-13.02c-.06-.58.16-.74.74-.74h1.46c.58,0,.7.16.74.74l.88,10.26c.02.24.1.3.28.3s.26-.06.28-.3l.88-10.26c.04-.58.16-.74.74-.74h1.46c.58,0,.8.16.74.74l-1.54,13.02c-.12.94-.42,1.24-1.46,1.24h-2.2Z"/><path d="m243.06,1275.56c0,.58-.16.74-.74.74h-1.28c-.58,0-.74-.16-.74-.74v-13.52c0-.58.16-.74.74-.74h1.28c.58,0,.74.16.74.74v13.52Z"/><path d="m250.94,1262.03c0-.58.16-.74.74-.74h1.28c.58,0,.74.16.74.74v10.06c0,3.22-.96,4.4-3.84,4.4s-3.8-1.18-3.8-4.4v-.6c.04-.58.2-.74.74-.74h1.28c.62,0,.78.16.74.74v1.08c.04.8.38,1.12,1.04,1.12.74,0,1.08-.32,1.08-1.12v-10.54Z"/><path d="m261.38,1276.5c-2.9,0-3.86-1.22-3.86-4.6v-6.2c0-3.36.96-4.6,3.86-4.6s3.86,1.24,3.86,4.6v6.2c0,3.38-.96,4.6-3.86,4.6Zm0-2.8c.7,0,1.02-.32,1.02-1.12v-7.46c0-.88-.32-1.22-1.02-1.22s-1.02.34-1.02,1.22v7.46c0,.8.32,1.12,1.02,1.12Z"/><path d="m273,1270.22l-.86,1.58c-.1.2-.12.28-.12.52v3.24c0,.58-.16.74-.74.74h-1.28c-.58,0-.74-.16-.74-.74v-13.52c0-.58.16-.74.74-.74h1.24c.58,0,.74.16.74.74v4.28c0,.16.06.2.16.2.08,0,.14-.02.2-.16l2.06-4.32c.32-.66.46-.74,1.22-.74h1.24c.58,0,.7.3.46.78l-2.32,4.62c-.12.22-.12.32-.04.56l2.52,8.2c.16.54-.02.84-.56.84h-1.22c-.6,0-.8-.16-.96-.7l-1.48-5.34c-.04-.16-.18-.18-.26-.04Z"/><path d="m283.68,1273.5h2.5c.58,0,.74.16.74.74v1.32c0,.58-.16.74-.74.74h-4.88c-.58,0-.74-.16-.74-.74v-13.52c0-.58.16-.74.74-.74h1.28c.58,0,.74.16.74.74v11.14c0,.24.08.32.36.32Z"/><path d="m292.68,1275.56c0,.58-.16.74-.74.74h-1.28c-.58,0-.74-.16-.74-.74v-13.52c0-.58.16-.74.74-.74h1.28c.58,0,.74.16.74.74v13.52Z"/><path d="m301.58,1261.29c.9,0,1.18.3,1.28,1.04l1.76,13.22c.08.58-.08.74-.66.74h-1.38c-.6,0-.74-.14-.82-.74l-.26-2.18c-.02-.2-.08-.26-.32-.26h-1.72c-.24,0-.3.06-.32.26l-.26,2.18c-.08.6-.22.74-.82.74h-1.38c-.58,0-.74-.16-.66-.74l1.76-13.22c.1-.74.38-1.04,1.28-1.04h2.52Zm-1.26,3.8c-.22,0-.34.04-.36.28l-.46,4.66c-.02.24.04.3.3.3h1.04c.26,0,.32-.06.3-.3l-.46-4.66c-.02-.24-.14-.28-.36-.28Z"/><path d="m310.72,1275.56c0,.58-.16.74-.74.74h-1.28c-.58,0-.74-.16-.74-.74v-13.52c0-.58.16-.74.74-.74h1.28c.58,0,.74.16.74.74v13.52Z"/><path d="m318.18,1269.77c0,1.02-.5,1.52-1.53,1.52h-.65c-1,0-1.52-.5-1.52-1.52v-.65c0-1,.53-1.52,1.52-1.52h.65c1.03,0,1.53.53,1.53,1.52v.65Z"/><path d="m326.32,1276.5c-2.9,0-3.86-1.22-3.86-4.6v-6.2c0-3.36.96-4.6,3.86-4.6s3.86,1.24,3.86,4.6v6.2c0,3.38-.96,4.6-3.86,4.6Zm0-12.6c-.7,0-1.02.32-1.02,1.12v7.56c0,.8.32,1.12,1.02,1.12s1.02-.32,1.02-1.12v-7.56c0-.8-.32-1.12-1.02-1.12Z"/><path d="m338.88,1270.66c0-1.16-.36-1.48-1.44-1.48h-1.74c-1.22,0-1.46-.22-1.46-1.28v-5.86c0-.58.16-.74.74-.74h5.72c.58,0,.74.16.74.74v1.32c0,.58-.16.74-.74.74h-3.4c-.28,0-.36.1-.36.36v1.38c0,.44.08.54.58.54h.34c2.78,0,3.86,1.32,3.86,4.28v1.92c0,2.54-.98,3.92-3.86,3.92s-3.82-1.28-3.82-4.4v-.6c0-.58.16-.74.74-.74h1.32c.58,0,.74.16.74.74v1.08c0,.8.32,1.12,1.02,1.12s1.02-.32,1.02-1.12v-1.92Z"/><path d="m348.86,1269.77c0,1.02-.5,1.52-1.53,1.52h-.65c-1,0-1.52-.5-1.52-1.52v-.65c0-1,.52-1.52,1.52-1.52h.65c1.03,0,1.53.53,1.53,1.52v.65Z"/><path d="m354.3,1264.75c0-.28-.08-.36-.36-.36h-.78c-.58,0-.74-.16-.74-.74v-1.62c0-.58.16-.74.74-.74h3.16c.58,0,.74.16.74.74v13.52c0,.58-.16.74-.74.74h-1.28c-.58,0-.74-.16-.74-.74v-10.8Z"/><path d="m365.64,1271.38c0-.92-.34-1.3-1.1-1.3h-.54c-.62,0-.74-.16-.74-.74v-1.18c0-.58.12-.74.74-.74h.54c.76,0,1.1-.4,1.1-1.4v-.7c0-1.02-.32-1.42-1-1.42-.72,0-1.04.32-1.04,1.12v.38c0,.58-.16.74-.74.74h-1.24c-.58,0-.74-.16-.74-.74v-.1c0-2.94,1.02-4.2,3.8-4.2,2.6,0,3.8,1.14,3.8,3.7v1.16c0,1.12-.22,1.96-1.02,2.62-.06.06-.08.08-.08.12s.02.06.08.12c.82.6,1.02,1.38,1.02,2.54v1.44c0,2.56-1.2,3.7-3.8,3.7-2.78,0-3.8-1.26-3.8-4.2v-.1c0-.58.16-.74.74-.74h1.24c.58,0,.74.16.74.74v.38c0,.8.32,1.12,1.04,1.12.68,0,1-.4,1-1.42v-.9Z"/><path d="m98.41,1155.72c0,40.37-23.85,61.95-49.88,61.95-30.46,0-41.87-23.15-41.87-40.38,0-10.53,2.56-19.82,10.01-25.07,3.58-2.52,13.31-3.88,17.18-1.66-4.42,3.77-11.26,14.66-11.26,30.96,0,22.71,11.41,33.58,25.94,33.58,16.39,0,28.43-21.82,30.76-47.83,2.25-25.07-.53-57.31-26.58-50.13-25.77,7.1-46.05-5.39-46.05-27.74,0-25.63,21.11-49.08,47.14-49.08,21.81,0,32.19,9.9,32.19,21.25.09,7.74-1.73,17.22-1.73,24.41,0,3.53,1.23,13.12,5.99,14.89-14.45,0-21.92-4.16-21.92-15.93,0-7.73,3.13-17.01,3.66-23.38,1.54-13-8.22-18.68-18.19-18.68-16.39,0-28.02,21.77-28.02,43.33,0,19.41,9.91,34.7,30.29,26.96,25.42-9.65,42.34,5.98,42.34,42.54Z"/><path d="m186.72,1041.7c-4.32,3.5-6.13,9.59-7.77,19.75-10.34,64.17-17.72,106.67-22.55,130.98-3.42,17.19-9.05,25.24-15.76,25.24s-11.23-6.78-15.39-26.88c-8.57-41.41-18.17-92.56-25.03-130.58-1.14-5.32-4.09-15.28-8.07-18.5h25.48c-4.32,3.5-2.03,15.78-1.31,19.75l-.02.02c6.31,36.42,13.68,78.5,24.44,127.97,2.26,10.41,4.22,16.43,6.63,16.43,2.15,0,4.27-3.38,6.28-13.89,7.1-37.06,11.43-61.03,22.62-130.54,1.07-6.66,2.11-16.25-2.21-19.75h12.65Z"/><path d="m268.23,1216.13h-25.48c4.32-3.5,2.02-15.78,1.31-19.75l.02-.02c-6.31-36.42-13.68-78.5-24.43-127.97-2.26-10.41-4.54-16.43-8.2-16.43-4.75,0-6.73,5.66-8.61,16.15-1.93,10.82-5.7,30.16-9.25,48.04-3.1,15.61-.2,18.8,3.84,18.8,8.63,0,13.22-17.58,21.89-17.58s12.58,11.45,3.34,17.48c-23.58,15.4-36.97,24.06-42.11,48.54-.89,5.04-1.62,9.45-2.14,13-.98,6.68-2.68,16.25,1.63,19.75h-12.65c4.32-3.5,6.51-9.62,8.34-19.75.23-1.27,1.14-6,2.5-13.01,5.19-28.82,28.77-40.31,40.53-48.39,3.55-2.44,3.89-5.93-.13-5.93-6.2,0-13.31,10.49-19.54,10.49-6.58,0-11.33-5.36-7.89-23.42,3.31-17.42,6.93-36.88,9.02-48.64,2.79-15.72,8.61-27.33,19.54-27.33,6.55,0,11.23,6.78,15.39,26.88,8.57,41.41,18.17,92.56,25.03,130.58,1.14,5.32,4.09,15.28,8.07,18.5Z"/><path d="m359.42,1166.24c0,31.5-34.46,51.43-59.61,51.43-26.61,0-27.16-22.33-27.16-35.98v-120.24c0-3.48-.45-16.25-4.77-19.75h44.29c25.69.06,46.51,8.67,46.88,30.06,0,28.79.37,79.9.37,94.48Zm-19.12.58c0-11.14-.36-62.36-.36-92.78,0-21.08-11.56-29.72-27.86-29.77h-23.49v137.7c0,15.02.96,32.86,11.22,32.86,18.03,0,40.49-14.16,40.49-48.01Z"/><path d="m375,1088.46l-1.82-1.82c11.59-11.59,9.64-29.98-5.32-44.94h21.42c4.5,14.82-.64,33.12-14.28,46.76Z"/><path d="m495.88,1157.08c0,33.18-38.69,60.59-63.84,60.59-26.61,0-27.16-22.33-27.16-35.98v-120.24c0-3.48-.45-16.25-4.77-19.75h44.29c25.69.06,46.51,8.67,46.88,30.06,0,28.79-42.87,58.72-54.61,70.15-3.51,3.42-1.01,7.67,2.52,5.76,7.38-3.99,19.43-14.09,33.1-14.09s23.58,8.91,23.58,23.5Zm-19.12.58c0-11.14-2.61-15.32-9.7-17.12-10.36-2.64-26.35,8.9-32.66,12.49-7.52,4.28-12.97-.67-4.63-7.9,23.85-20.65,42.41-40.67,42.41-71.09,0-21.08-11.56-29.72-27.86-29.77h-23.49v137.7c0,15.02.96,32.86,11.22,32.86,18.03,0,44.72-26.09,44.72-57.17Z"/><path d="m592.45,1216.13h-25.48c4.32-3.5,2.02-15.78,1.31-19.75l.02-.02c-6.31-36.42-13.68-78.5-24.43-127.97-2.26-10.41-4.54-16.43-8.2-16.43-4.75,0-6.73,5.66-8.61,16.15-1.93,10.82-5.7,30.16-9.25,48.04-3.1,15.61-.2,18.8,3.84,18.8,8.63,0,13.22-17.58,21.89-17.58s12.58,11.45,3.34,17.48c-23.58,15.4-36.97,24.06-42.11,48.54-.89,5.04-1.62,9.45-2.14,13-.98,6.68-2.68,16.25,1.63,19.75h-12.65c4.32-3.5,6.51-9.62,8.34-19.75.23-1.27,1.14-6,2.5-13.01,5.19-28.82,28.77-40.31,40.53-48.39,3.55-2.44,3.89-5.93-.13-5.93-6.2,0-13.31,10.49-19.54,10.49-6.58,0-11.33-5.36-7.89-23.42,3.31-17.42,6.93-36.88,9.02-48.64,2.79-15.72,8.61-27.33,19.54-27.33,6.55,0,11.23,6.78,15.39,26.88,8.57,41.41,18.17,92.56,25.03,130.58,1.14,5.32,4.09,15.28,8.07,18.5Z"/><path d="m101.63,485.47c.23-.32.4-.8.71-.92,2.16-.84,3.5-2.64,4.99-4.23,2.22-2.38,4.33-4.87,6.37-7.4,3.04-3.76,6.45-7.07,10.41-9.88,3.58-2.53,6.96-5.33,10.45-7.99,4.6-3.5,9.75-5.92,15.43-6.76,3.91-.58,7.89-.75,11.94-.28,4.07.47,7.93,1.43,11.75,2.78,4.34,1.53,8.12,4.07,11.68,6.86,7.38,5.77,14.39,11.97,21.08,18.54,4.83,4.75,7.72,10.59,9.34,17.02.9,3.58,1.06,7.34,1.61,11.01.35,2.3.8,4.58,1.25,7.09.31-.55.58-.99.8-1.44,2.94-6.1,6.82-11.58,11-16.87,2.16-2.74,4.28-5.49,6.67-8.07,2.82-3.05,6.11-5.32,9.62-7.41,1.18-.7,2.29-1.52,3.47-2.23,2.49-1.5,5-2.99,7.52-4.44,3.23-1.86,6.53-3.61,9.73-5.52,3.13-1.87,6.18-3.89,9.38-5.93-4.15-2.55-8.25-5-12.27-7.57-4.61-2.95-9.24-5.88-13.71-9.04-4.42-3.13-8.56-6.65-12.97-9.81-2.48-1.78-5.23-3.2-7.87-4.75-6.07-3.56-11.94-7.41-17.47-11.78-7.97-6.29-14.13-14.01-18.85-22.95-1.93-3.65-4.04-7.2-5.03-11.27-.09-.38-.36-.73-.6-1.06-1.37-1.88-2.76-3.74-4.33-5.86-2.12.34-4.17-.57-6.21-1.92-1.23-.81-2.87-.96-4.29-1.51-1.12-.43-2.17-1.03-3.39-1.62-2.18,1.22-2.88.87-4.8-2.69-.48.99-.93,1.9-1.36,2.83-1.15,2.51-2.65,2.33-4.32.65-.23-.23-.39-.51-.66-.86-2.82,1.89-5.3,1.05-7.66-1.49-.65.91-1.23,1.65-1.72,2.45-.47.76-.77,1.61-1.26,2.35-1.05,1.6-2.54,1.82-3.89.52-.81-.78-1.43-1.74-2.13-2.64-.39-.5-.76-1.02-1.09-1.47-1.36-.12-1.52,1.01-1.99,1.67-2.29,3.15-3.44,3.44-6.91,1.55-.36-.19-.7-.41-1.34-.79-.67.63-1.47,1.25-2.13,2.01-.9,1.04-1.71,2.16-2.54,3.26-.91,1.21-2.14,1.35-3.49,1.1-1.17-.22-1.84-.94-1.89-2.15-.11-2.27,1.04-4.01,2.48-5.61,3.71-4.13,8.29-6.97,13.43-8.93,4.29-1.64,8.53-3.5,13.11-4.23,2.23-.36,4.48-.72,6.73-.78,3.89-.11,7.79-.23,11.63.79,6.87,1.83,12.98,4.94,17.89,10.18.33.36.59.79,1.25.95-.12-.46-.31-.91-.34-1.38-.19-3.74-.46-7.47-.49-11.21-.04-4.69-1.15-9.13-2.78-13.45-.88-2.34-2.11-4.55-3.11-6.84-1.43-3.28-3.81-5.64-7.1-6.93-7.31-2.87-13.88-7.09-20.56-11.12-2.53-1.53-4.7-3.45-6.89-5.41-5.74-5.13-9.77-11.45-13.18-18.22-1.76-3.49-2.55-7.3-3.23-11.12-1.09-6.15-.63-12.37-.4-18.53.18-4.73,1.08-9.47,1.98-14.14.81-4.18,1.92-8.31,3.17-12.38,1.34-4.38,3.12-8.63,4.51-13.01,3.08-9.68,6.33-19.3,9.01-29.12,2.29-8.38,4.97-16.69,9.21-24.36,2.28-4.12,3.75-8.54,5.27-12.96,1.54-4.47,4.51-7.69,8.83-9.46,2.82-1.16,5.64-2.45,8.76-2.74,1.85-.18,3.67-.57,5.52-.73,2.83-.25,5.67-.53,8.51-.52,3.57,0,7.16.13,10.71.5,3.92.41,7.79,1.21,11.69,1.77,3.03.43,6.08.77,9.13,1.12,6.9.79,13.81,1.67,20.36,4.03,2.45.88,4.62,2.59,6.84,4.05,1.4.92,1.54,2.67,1.93,4.1.88,3.25,1.46,6.59,2.11,9.9.67,3.39,1.26,6.8,1.93,10.19.78,3.94,1.55,7.86,2.74,11.73,1.39,4.53,2.21,9.24,3.13,13.9.89,4.5,1.66,9.03,2.38,13.56.45,2.79.7,5.62,1.07,8.42.59,4.48.84,9,1.82,13.44.45,2.04.53,4.18.61,6.28.1,2.61-.01,5.23.03,7.84.06,3.75-.34,7.45-.92,11.15-.35,2.24-.43,4.52-.55,6.79-.57,10.3-3.55,19.78-8.93,28.63-2.67,4.38-5.96,8.13-9.71,11.45-4.73,4.2-9.97,7.73-15.61,10.64-6.18,3.18-12.47,6.1-19.03,8.44-2.79,1-5.46,2.43-8.04,3.91-1.05.6-1.91,1.76-2.51,2.85-3.26,5.95-5.5,12.29-6.56,18.98-.42,2.62-.27,5.33-.27,8,0,3.25.44,6.46,1.24,9.62,1.07,4.21,3.28,7.9,5.39,11.62,2.44,4.3,4.98,8.54,8.08,12.42,3.91,4.9,8,9.62,13.15,13.28.91.65,2.08.95,2.97,1.62,2.63,2.01,5.19,4.11,7.75,6.21,2.07,1.69,4.07,3.47,6.18,5.12,3.19,2.48,6.47,4.83,9.66,7.3,8.19,6.34,16.85,11.98,25.87,17.07,1.62.91,3.22,1.85,4.8,2.75,2.01-1.05,3.91-2.13,5.88-3.05,2.69-1.25,4.69-3.21,5.99-5.81,2.47-4.91,4.93-9.83,7.19-14.84,2.23-4.94.44-8.41-4.01-11.25-1.81,2.48-3.57.34-5.5-.2-.9,1.06-1.68,2.24-3.45,2.15-.93-.04-1.18,1.08-1.07,2.09.1.86.13,1.81-.13,2.62-.51,1.63-1.19,1.79-2.68.92-.41-.24-.86-.4-1.52-.7v6.05c-.96.12-1.74.22-2.64.33.1,1,.17,1.86.26,2.71.12,1.12-.36,2.03-1.34,2.34-.96.31-2.09.51-2.99-.38-2.02-2.01-3.03-4.5-2.63-7.27.76-5.26,3.56-9.58,6.79-13.67,1.46-1.85,2.95-3.65,4.97-4.93,2.8-1.77,5.64-2.44,8.69-.61,1.56.93,3.16,1.79,4.74,2.69.1-.15.19-.3.29-.45-.61-.44-1.17-1.02-1.85-1.29-3.01-1.16-5.46-3.39-8.65-4.26-1.76-.48-1.82-2.2-.35-3.34,1.82-1.43,5.24-1.06,7.42.86.92.81,1.74,1.72,2.6,2.59.85.87,1.69,1.74,2.68,2.76-.33-2.31-1.47-4.06-3.57-5.83-2.42-2.05-4.85-4.09-7.17-6.24-2-1.85-4.26-3.16-6.8-4.13-5.44-2.08-10.86-4.24-16.26-6.42-2.68-1.09-4.89-2.88-6.85-4.99-1.24-1.33-2.14-2.83-2.54-4.64-.78-3.5-1.29-6.98-.52-10.58.4-1.89.37-3.86.63-5.79.68-5.03,2.61-9.44,6.36-13.02,2.96-2.83,6.53-4.19,10.44-4.63,5.88-.67,11.19,1.16,16.17,4.16.14.08.23.24.37.32,6.18,3.38,10.11,8.81,13.43,14.79.78,1.41,1.68,2.77,2.33,4.24,1.19,2.67,1.74,5.51,1.61,8.47,1.05-5.66-.65-10.85-2.85-15.88-.68-1.56-2.18-2.77-3.31-4.13-.15-.18-.38-.31-.56-.47-2.36-2.22-4.71-4.45-7.22-6.82,3.34-2.68,6.23-5.77,10.33-7.2,2.59-.9,5.1-2.03,7.69-2.9,2.92-.99,5.97-.48,8.96-.35,1.34.06,2.67.54,4,.84,5.26,1.19,9.87,3.79,13.78,7.31,3.84,3.45,6.23,8,7.33,13.12.15.71.26,1.44.49,2.12,1.16,3.55.21,6.92-1.14,10.13-1.28,3.06-2.95,5.97-5.27,8.42-3.03,3.19-6.04,6.39-9.09,9.56-.7.73-1.15,1.42-1.19,2.53-.08,2.77-1.23,5.15-3.11,7.18-2.21,2.39-4.46,4.75-6.64,7.16-.44.49-.67,1.18-1,1.78.12.11.24.21.36.32.57-.5,1.1-1.06,1.72-1.49,1.91-1.35,3.88-2.6,5.76-3.98,2.7-1.98,9.38-.45,11.63,1.65.85.79,1.47,1.82,1.33,2.74-.46,3-.3,6.18-2.13,8.85-.18.26-.3.59-.53.79-.89.77-1.87.43-2.14-.74-.26-1.16-.51-2.32-.76-3.47-1.38.3-2.58.55-3.81.81-.28-.96-.48-1.62-.75-2.53-.67.38-1.19.68-1.71.97-.56.31-1.22.97-1.68.86-2.01-.5-3.11.93-4.44,1.85-2.38,1.66-4.8,3.3-7.06,5.12-3.9,3.15-6.66,7.12-8.11,11.99-1.25,4.22-2.62,8.41-5.24,12.34.69-.28,1.15-.39,1.53-.63,5.75-3.64,12.12-5.94,18.38-8.48,3.22-1.31,6.44-2.6,9.67-3.9,4.26-1.72,8.54-3.39,12.78-5.17,2.46-1.03,4.89-2.14,7.25-3.38,6.08-3.21,12.22-6.35,18.13-9.86,3.32-1.97,6.21-4.65,9.35-6.93,4.49-3.25,8.41-7.13,12.51-10.84,2.95-2.68,5.26-5.69,7.35-8.98,1.69-2.67,2.59-5.63,2.7-8.7.13-3.39.4-6.82-.4-10.2-.75-3.13-1.3-6.3-2.01-9.44-.19-.86-.54-1.7-.95-2.48-1.22-2.33-2.96-3.09-5.43-2.42-.46.12-.89.31-1.53.53-.5-.98-.97-1.88-1.59-3.1-.82.17-1.76.26-2.62.57-1.2.43-2.29.79-3.42-.17-.71-.61-1.54-.46-2.22.13-1.29,1.11-2.53,2.29-3.84,3.38-.86.72-1.73,1.48-2.72,1.98-2.2,1.11-3.21.66-4.26-1.52-3.36-7.02.51-17.19,8.76-18.96,5.63-1.21,11.09-1.29,16.27,1.61,1.01.56,1.98,1.2,3.47,2.12-1.83-5.43-3.21-10.49-5.22-15.29-3.93-9.39-8.13-18.68-12.38-27.93-2.94-6.4-6.1-12.7-9.26-19-4.57-9.1-9.2-18.17-13.86-27.22-2.18-4.24-4.58-8.38-6.74-12.63-1.87-3.68-3.53-7.46-5.3-11.18-1.35-2.84-2.74-5.67-4.09-8.51-.31-.65-.6-1.32-.85-1.99-1.66-4.55,1.2-7.82,3.71-9.92,2.52-2.11,5.47-3.49,8.47-4.7,5.53-2.23,11.06-4.53,16.72-6.38,7.34-2.4,14.84-4.22,22.4-5.83,4.28-.91,8.54-.92,12.83-.87,2.39.02,2.96.49,3.54,2.42-.49.06-.99.25-1.43.15-5.62-1.24-11.14-.33-16.53,1.1-7.77,2.05-15.52,4.25-23.13,6.82-5.72,1.93-11.24,4.48-16.79,6.89-1.51.66-2.81,1.8-4.09,2.94,8.23-4.7,16.84-8.18,26.93-9.14-.59.51-.75.69-.95.8-.27.16-.57.3-.87.4-3.07.96-6.13,1.95-9.22,2.86-6.03,1.78-11.57,4.49-16.42,8.54-.66.55-1.18,1.25-1.81,1.93,1.71,1.88,3.8,2.28,5.82,2.63,1.91.33,3.87.4,5.81.53,2.86.19,5.65-.32,8.45-.82,4.04-.72,8.08-1.42,12.13-2.11,11.57-1.96,22.47-5.83,32.79-11.37.64-.34,1.24-.78,1.82-1.23,1.55-1.19,2.31-2.54,1.53-4.62-.78-2.1-1.49-4.29-1.72-6.5-.19-1.87-.67-3.54-1.66-5.03-2.19-3.29-4.13-6.87-6.86-9.66-3.55-3.63-7.24-7.28-11.76-9.78-2.53-1.4-5.24-2.54-7.99-3.45-1.65-.55-3.51-.55-5.29-.59-1.6-.04-2.58-.68-3.11-2.13q2.82-1.98,9.8-.1c-2.86-1.87-6.35-3.03-9.61-3.19-.24-.01-.52.06-.73-.03-3.15-1.39-6.62-.65-9.82-1.49-2.64-.69-5.18-1.76-7.75-2.7-1.21-.45-2.4-.97-3.57-1.52-.58-.27-1.15-.61-1.66-1.01-1.13-.88-2.04-2-1.6-3.51.45-1.51,1.69-2.52,3.22-2.59,2.01-.1,4.04.1,6.05.32,2.56.28,5.15.54,7.66,1.12,2.56.6,5.13,1.37,7.53,2.44,3.09,1.37,6.13,2.93,8.99,4.72,3.35,2.09,6.64,4.32,9.7,6.81,6.92,5.63,12.52,12.39,16.56,20.41,1.7,3.38,3.62,6.66,5.48,9.97.39.69.88,1.38,1.48,1.87,2.09,1.68,2.93,3.98,3.48,6.48.69,3.15,1.45,6.28,2.15,9.42.62,2.82,1.19,5.66,1.79,8.49.36,1.73.78,3.46,1.08,5.2.72,4.13,1.86,8.16,1.95,12.42.07,3.12.92,6.21,1.31,9.33.42,3.37.72,6.75,1.05,10.13.34,3.46.67,6.92.95,10.39.22,2.67.39,5.34.51,8.01.2,4.07.28,8.14.52,12.2.2,3.31.8,6.62.8,9.93,0,3.97-.52,7.93-.73,11.91-.12,2.2.03,4.41-.12,6.61-.21,3.06-.59,6.11-.89,9.16-.19,1.93-.39,3.86-.55,5.8-.13,1.56.24,2.97.88,4.45,1.59,3.71,2.8,7.56,3.06,11.65.12,1.9-.49,3.47-1.52,4.98-2.4,3.53-4.75,7.1-7.15,10.63-1.92,2.82-2.99,6-4.06,9.45,2.94-2.06,5.85-3.73,9.18-4.52.87-.21,1.75-.42,2.63-.47,2.2-.12,3.93.96,4.77,3.06,1.14,2.86,1.99,5.78,2.04,8.93.05,3.82.36,7.64.43,11.46.03,1.44-.29,2.89-.52,4.32-.07.46-.34.91-.6,1.31-1.51,2.3-2.89,2.2-4.14-.24-1.55-3.01-2.36-6.18-2.26-9.59.03-1-.26-2-.42-3.1-1.14.53-2.01.93-2.83,1.31-2.38-.76-2.16-3.27-3.35-4.91-1.2.87-2.3,1.68-3.44,2.52-1.82-.66-1.09-2-.77-3.27-2.37.75-3.1,2.96-4.53,4.44-1.57,1.62-2.94,3.44-4.35,5.2-1.41,1.77-2.76,3.59-4.15,5.38-.3.39-.59.78-.92,1.13-4.76,4.94-9.46,9.93-14.32,14.77-2.36,2.35-4.92,4.5-7.54,6.56-4.53,3.55-9.17,6.95-13.77,10.41-.44.33-.9.61-1.77,1.2,3.11.18,5.63-.58,8.16-1.1,2.38-.49,4.61-1.35,6.63-2.77,3-2.12,6.45-3.26,9.9-4.39,3.59-1.18,7.21-2.28,10.8-3.46,4.45-1.46,9-1.37,13.45-.38,6.33,1.4,12.52,3.41,17.82,7.31,3.42,2.52,6.32,5.64,7.4,9.94.37,1.46.57,3.07.37,4.54-.37,2.78-3.19,4.08-5.48,2.8-2.34-1.31-4.06-3.21-5.55-5.37-1.13-1.64-1.12-1.64-3.08-1.07-.23.07-.5.03-.72.12-2.35.94-4.46.57-6.23-1.26-.93-.95-1.97-1.38-3.29-1.26-.65.06-1.31-.05-1.96.02-2.53.26-4.77-.25-6.79-1.92-1.69-1.39-3.83-1.09-5.85-.98-1.78.1-3.55.36-5.33.4-3.18.07-6.37.02-9.93.02,2.2.93,4.18,1.55,5.28,3.52.88,1.58.78,3.45-.61,4.62-.98.83-2.12,1.47-3.23,2.12-.99.57-1.7.43-2.34-.72-.73-1.31-1.67-2.57-2.76-3.59-2.14-1.98-5.02-2.02-7.7-2.49-2.09-.36-4.11.17-6.18.4-2.66.3-5.38.07-8.08.08-3.12.02-6.12.68-8.92,2-6.58,3.11-13.36,5.75-20.17,8.3-3.55,1.33-7.04,2.83-10.51,4.38-8.27,3.71-16.52,7.47-24.76,11.25-2.76,1.27-5.47,2.67-8.73,4.28,1.75.76,2.91,1.24,4.04,1.77,4.16,1.98,8.23,4.15,12.47,5.92,5.43,2.26,10.11,5.7,14.89,8.97,2.19,1.49,3.98,3.56,5.95,5.37,1.14,1.05,2.15,2.29,3.43,3.13,4.09,2.68,7.32,6.12,9.74,10.34,2.93,5.1,5.95,10.16,7.59,15.88.71,2.48,1.29,4.97,1.35,7.59.05,2.16.56,4.32.8,6.48.25,2.26.31,4.54.65,6.78.5,3.25.11,6.42-.47,9.61-.1.53-.01,1.09-.01,2.17,1.97-2.13,3.62-3.91,5.25-5.69.33-.36.59-.78.94-1.12,4.49-4.28,6.43-9.72,7.35-15.68.31-1.97.83-3.95,1.5-5.83.81-2.25,2.17-2.76,4.45-1.92.75.28,1.51.61,2.18,1.04,1.23.8,1.83,1.91,1.85,3.47.05,3.05-.05,6.02-2.04,8.57-.4.51-.82,1.01-1.28,1.47-3.35,3.33-6.72,6.66-10.21,10.11.64.28,1.24.73,1.89.8,2.87.3,5.67.69,8.66.34,4.65-.55,8.92-2.13,13.32-3.44,3.15-.93,6.49-1.25,9.63-2.21,3.15-.97,6.21-2.27,9.21-3.64,6.26-2.86,12.38-6.02,18.68-8.77,4.82-2.1,9.94-3.49,15.16-4.06,3.44-.37,7.02-.18,10.45.34,6.19.94,12.35,2.19,18.47,3.54,3.89.86,7.47,2.62,10.76,4.87,2.4,1.64,4.79,3.32,7.01,5.19,1.28,1.08,2.21,2.59,3.47,4.11-.38.65-.79,1.37-1.31,2.26-.64-.47-1.04-.85-1.51-1.1-.7-.38-1.42-.9-2.16-.97-2.66-.27-5.34-.33-8.01-.55-2.11-.17-4.01.53-5.83,1.36-5.06,2.31-10.25,1.94-15.49.93-1.74-.34-3.49-.62-5.23-.92-3.01-.52-5.66-1.94-8.22-3.47-1.94-1.16-3.92-1.71-6.18-1.86-3.54-.24-7.04-.9-10.58-1.26-3.82-.38-7.64-.56-11.08,1.72-1.04.69-2.18,1.24-3.57,2.03,3.25.73,6.09,1.59,9.11,1.31.97-.09,1.96.05,2.94-.02,3.61-.26,7.1.37,10.58,1.23.54.13,1.12.24,1.67.21,2.1-.12,4.2-.27,6.29-.45,1.72-.15,2.96.67,4.02,1.89.8.92,1.5,1.95,2.41,2.75.82.72,1.87,1.19,3.11,1.96-.48.77-.79,1.93-1.48,2.24-1.66.75-3.5,1.48-5.28,1.53-1.66.04-3.58-.24-4.61-2.15-.22-.42-1.14-.64-1.73-.64-1.37,0-2.73.2-4.1.33-1.62.15-3.25.39-4.78-.41-4.84-2.54-10.1-3.8-15.4-4.82-3.4-.65-6.83-1.14-10.28-1.47-3.12-.3-6.11.81-8.88,1.99-7.82,3.32-15.63,6.61-23.84,8.87-1.78.49-3.59.88-5.38,1.34-.7.18-1.44.34-2.05.69-5.95,3.4-11.67,7.1-15.84,12.72-.53.72-1.23,1.31-1.85,1.96-3.32,3.48-6.64,6.95-9.95,10.43-2.86,3.01-5.63,6.1-8.59,9.01-1,.98-2.06,1.91-3.77,2.18-1.31.21-2.38,1.84-3.59,2.8-3.37,2.66-6.76,5.29-10.14,7.94-1.28,1-2.51,2.06-3.8,3.05-1.09.83-2.15,1.77-3.37,2.36-3.25,1.58-5.87,3.98-8.62,6.22-4.27,3.47-8.54,6.95-12.79,10.46-1.66,1.37-3.27,2.82-5.06,4.38,2.02,1.57,3.85,3.16,5.84,4.51,10.1,6.87,20.31,13.53,31.14,19.24,10.04,5.29,19.99,10.77,29.82,16.46,4.46,2.58,8.89,5.44,12.65,8.91,4.69,4.32,9.45,8.65,13.29,13.87,2.59,3.52,5.7,6.66,8.41,10.11,2.84,3.62,5.58,7.34,8.18,11.14,3.1,4.55,6.02,9.23,7.66,14.55,1.28,4.15,2.39,8.34,3.54,12.53.17.61.1,1.3.1,1.95.01,2.35,0,4.71,0,7.33,3.13-3.06,6.05-5.96,9.01-8.8.99-.96,2.02-1.9,3.17-2.67,1.46-.98,2.39-2.32,3.22-3.8.75-1.33.8-2.61.03-3.92-1.71-2.91-1.11-5.54.79-8.14,1.23-1.69,2.34-3.48,3.36-5.31.46-.82.57-1.82.84-2.74.16-.54.25-1.11.49-1.62.66-1.43,2.09-1.85,3.39-1,1.13.75,2.7,2.97,2.04,5.13-.19.62-.26,1.29-.56,1.85-1.37,2.58-.5,4.82.92,7.03,1.83,2.85,1.65,3.62-1.12,5.77-1.02.79-2.02,1.61-3,2.45-.47.41-.87.9-1.23,1.46,3.84-2.24,7.84-4.01,12.16-5,4.49-1.02,8.99-.79,13.54-.41,6.35.54,11.37,3.93,16.56,7.03.55.33,1.03.78,1.51,1.21,1.99,1.81,3.97,3.62,5.93,5.44,1.7,1.58,2.85,3.43,2.87,6.05-1.15-.3-2.15-.54-3.12-.83-4.22-1.26-8.41-1.63-12.86-.98-2.61.38-5.17.85-7.72,1.45-1.42.33-2.61-.27-3.25-1.93-.58-1.5-1.59-2.08-3.02-2.45-.71-.18-1.36-.78-1.94-1.31-.46-.42-.77-1.02-1.24-1.68-1.35.56-2.6,1.09-3.86,1.6-2.13.86-2.74.73-4.12-1.04-.77-.99-1.78-1.35-2.96-1.44-4.6-.34-9.11.13-13.32,2.08-2.75,1.27-4.89,3.33-6.72,5.92,2.59.82,4.75,1.97,6.48,3.93,1.09,1.24,2.01,2.48,2.61,4.04,1.39,3.62,1.5,7.18.27,10.9-1.17,3.57-3.49,6.35-5.63,9.28-1.77,2.42-3.62,4.8-5.18,7.34-2.15,3.51-3.51,7.37-3.92,11.48-.43,4.27-.69,8.55-1.03,12.82-.14,1.78-.42,3.57-.41,5.35.02,2.1.43,4.2.4,6.29-.03,3.08-.28,6.16-.48,9.23-.04.63-.3,1.24-.48,1.96,2.67.79,5.28,1.52,7.86,2.33,3.7,1.15,7.35,2.46,11.08,3.51,2.2.62,4.24,1.49,6.29,2.48,2.53,1.23,5.25,2.07,7.83,3.21,2.51,1.11,4.95,2.38,7.4,3.6,1.89.94,3.82,1.81,5.62,2.9,1.93,1.17,3.89,2.37,5.53,3.88,3,2.75,5.9,5.61,8.16,9.05,2.38,3.62,4.03,7.49,3.4,11.88-.46,3.18-1.95,5.99-4.01,8.53-6.5,7.99-14.77,13.22-24.53,16.29-3.89,1.22-7.69,2.7-11.54,4.06.03.17.06.33.1.5.95-.12,1.91-.16,2.83-.39,6.34-1.56,12.5-3.65,18.56-6.08,3.24-1.3,6.27-2.88,9.3-5.18-.05,3.01-.65,5.62-1.75,8-1.75,3.81-3.37,7.74-6.34,10.87-1.85,1.94-3.48,4.12-5.5,5.86-3.62,3.11-7.36,6.12-11.24,8.89-4.14,2.96-8.43,5.72-12.8,8.35-4.79,2.88-9.69,5.57-14.94,7.57-4.85,1.85-9.85,3.09-14.93,4.09-4.74.94-9.47,1.95-14.22,2.79-3.65.65-7.35,1.07-11.02,1.63-3.66.57-7.31,1.26-10.98,1.77-3.36.47-6.74.92-10.12,1.13-6.66.4-13.33.69-20,.91-4.32.14-8.66.03-12.98.11-6.2.12-12.42,0-18.57.58-6.12.57-12.22.28-18.33.34-2.56.02-5.13-.55-7.7-.85-1.69-.19-3.37-.4-5.07-.54-2.26-.2-4.53-.3-6.78-.53-2.09-.21-4.16-.55-6.25-.79-2.01-.24-4.03-.66-6.03-.62-6.75.16-13.11-1.57-19.51-3.43-4.24-1.23-8.61-2.01-12.93-2.98-4.19-.93-8.15-2.47-12.05-4.27-7.81-3.61-14.92-8.38-22.09-13.04-2.36-1.54-4.37-3.6-6.56-5.41-2.3-1.91-4.67-3.74-6.92-5.71-2.88-2.52-5.77-5.02-7.91-8.26-.62-.94-1.43-1.76-2.22-2.58-3.13-3.26-4.98-7.14-5.6-11.59-.34-2.39-.47-4.82-.72-7.59,2.46,1.07,3.11,3.29,4.7,4.57,1.65,1.33,3.13,2.86,4.8,4.15,1.66,1.27,3.43,2.41,5.22,3.49,1.8,1.09,3.67,2.05,5.53,3.03,1.83.96,3.7,1.87,5.74,2.53-1.15-.92-2.27-1.89-3.46-2.75-3.62-2.6-7.33-5.08-10.88-7.77-4.63-3.51-8.54-7.74-11.9-12.5-2.39-3.38-4.65-6.76-5.63-10.89-.87-3.63-1.43-7.28.34-10.69,1.36-2.63,3-5.23,5.02-7.36,2.95-3.12,6.32-5.84,9.58-8.65.78-.67,1.79-1.1,2.75-1.52,7.85-3.41,15.82-6.47,24.08-8.77,6.2-1.73,12.34-3.66,18.53-5.51-.58-3.96-1.72-7.74-3.64-11.35-1.78-3.35-4.43-5.8-7.26-8.11-1.4-1.15-2.73-2.24-3.58-3.91-1.19-2.33-1.19-4.63-.36-7.04.55-1.6.96-3.25,1.47-4.87,1.4-4.36,4.09-8.04,6.4-11.91.35-.59.89-1.43.7-1.91-1.76-4.53-.23-8.75,1.13-12.96,1.56-4.84,3.42-9.59,4.82-14.48,1.22-4.24,2.02-8.61,2.97-12.93,1.02-4.6,1.61-9.23,1.51-13.97-.05-2.5.48-5.02.41-7.53-.13-4.28-.45-8.55-1.36-12.76-.77-3.54-1.29-7.14-2.3-10.61-1.01-3.47-2.46-6.82-3.8-10.18-.75-1.87-1.74-3.65-2.49-5.52-1.62-4.04-4.2-7.48-6.92-10.78-1.85-2.24-3.84-4.5-6.2-6.12-2.08-1.43-4.28-3.11-7.27-2.79-1.63.17-2.58.75-3.16,2.15-.28.67-.43,1.39-.7,2.06-.83,2.04-1.85,2.58-4,2.15-.37-.07-.71-.24-1.28-.44-.34,1.21-.62,2.27-.92,3.32-.77,2.66-.99,2.81-3.68,2.59-2.1-.17-2.2-.14-2.74,1.81-.26.92-.38,1.89-.46,2.85-.2,2.34-.29,4.69-.53,7.03-.17,1.68-1.63,2.52-3.19,1.85-.81-.35-1.57-.88-2.23-1.47-1.1-.97-2.12-2.04-3.12-3.11-.44-.46-.88-.99-1.1-1.57-1.38-3.66-2.33-7.39-1.46-11.35.21-.95.22-1.93.42-2.88,1.24-5.91,5.24-9.35,10.57-11.38,4.47-1.71,9.22-1.72,13.92-1.48,1.08.06,2.14.66,3.18,1.09.88.36,1.72.84,2.83,1.38,0-1.06.15-1.95-.02-2.76-1.17-5.41-.12-10.49,3.3-14.66,2.74-3.35,6.42-5.78,11.13-5.68.6.01,1.35.17,1.77.55,1.65,1.5,2.89,3.28,3.24,5.56.15.95.44,1.9.47,2.85.08,2.55-1.62,3.92-4.1,3.37-.71-.16-1.38-.46-2.09-.6-1.2-.25-1.78.09-2.12,1.22-.19.62-.41,1.24-.46,1.88-.19,2.41-1.06,4.4-3.58,5.65,1.48,2.74,2.74,5.53,4.4,8.06,5.31,8.09,10.84,16.03,16.12,24.14,1.84,2.83,3.18,5.99,4.85,9.18,10.91-26.07,28.16-47.11,50.91-63.89-.55-.62-.89-1.18-1.38-1.52-3.66-2.47-5.86-6.28-8.73-9.47-5.78-6.44-9.54-14.23-14.19-21.42-2.59-4-5.22-7.97-7.7-12.02-2.91-4.75-5.57-9.61-7.7-14.79-1.72-4.18-3.45-8.34-4.56-12.72-.73-2.9-1.26-5.84-1.23-8.87.04-4.06-.74-8.02-1.59-11.98-.55-2.55-1.24-5-2.81-7.13-1.19-1.61-2.66-2.77-4.85-3.12-.33,1.57-1.21,2.65-2.77,3-.54.12-1.1.21-1.65.18-1.53-.08-3.06-.28-4.59-.34-.45-.02-.95.17-1.35.4-2.21,1.32-4.63,1.78-7.15,2.06-1.74.19-3.43.74-5.26,1.16-.05.52-.06,1.09-.18,1.62-.63,2.77-2.84,3.89-5.51,2.78-.74-.31-1.45-.72-2.17-1.09-1.37-.7-2.77-.86-4.21-.26-1.92.8-3.83,1.6-5.74,2.41-.86-1.68-.83-2.45.33-3.4,1-.82,2.05-1.61,3.18-2.23,1.29-.71,2.17-1.72,2.68-3.03,1.35-3.45,2.88-6.86,3.87-10.42,1.79-6.36,8.26-8.67,13.83-7.57,5.54,1.1,9.83,3.96,13.74,7.71.94.9,1.84,1.86,2.78,2.76.41.39.84.84,1.34,1.01,3.31,1.06,5.61,3.47,7.94,5.85.28.29.59.55,1.29,1.18-.3-.95-.43-1.44-.6-1.9-1.32-3.53-1.39-7.22-.83-10.82.44-2.84-.01-5.56-.36-8.24-.89-6.85-3.96-12.92-7.94-18.5-1.61-2.25-3.55-4.2-6.13-5.46-1.52-.74-2.87-1.8-4.37-2.58-2.83-1.49-5.89-2.18-9.06-2.47-1.53-.14-3.05-.48-4.58-.45-2.1.04-4.2.25-6.29.54-5.03.7-9.97,1.84-14.82,3.34-3.68,1.14-7.39,2.23-11,3.59-4.03,1.51-8,1.65-12.13.52-2.94-.8-5.95-1.35-8.98-2.02-1.49,1.47-2.99,2.96-4.5,4.43-1.66,1.62-3.72,2.59-5.89,3.28-3.21,1.01-6.46,1.91-9.7,2.84-1.36.39-2.12-.37-2.68-1.46,0-.49,0-.98,0-1.47Zm133.29,325.37c4.92-.86,9.51-1.65,14.1-2.47,5.54-.99,11.11-1.88,16.28-4.3,1.23-.58,2.57-.95,3.88-1.33,2.43-.69,4.83-1.14,7.39-.37,1.91.58,3.94.97,5.93,1.03,7.98.24,15.97-.32,23.95.49,1.33.13,2.72-.45,4.07-.42,3.98.09,7.96-.37,11.94.4,2.85.55,5.77.75,8.66,1,.66.06,1.51-.09,2-.48,4.74-3.77,9-8.05,12.72-12.8,3.44-4.39,6.61-9,9.78-13.59,6.68-9.69,12.34-19.91,15.89-31.19,1.66-5.26,1.97-10.58,1.13-16.06-1.21-7.89-4.14-15.12-8.47-21.69-3.49-5.3-6.72-10.82-11.12-15.51-2.71-2.89-4.96-6.22-7.74-9.04-3.3-3.34-6.87-6.43-10.47-9.46-3.88-3.28-7.88-6.43-11.91-9.54-3.91-3.02-7.71-6.26-11.93-8.77-7.63-4.55-15.59-8.55-23.32-12.96-4.98-2.84-9.81-5.96-14.67-9.02-1.9-1.19-3.69-2.54-5.67-3.92-2.54,2.03-5.12,3.87-7.44,6.01-2.15,1.98-4.01,4.26-5.99,6.43-3.3,3.61-6.67,7.14-9.84,10.86-3.11,3.64-6.07,7.41-8.98,11.21-4.58,5.99-7.11,13.03-9.86,19.93-2.47,6.23-4.09,12.72-5.33,19.3-.65,3.41-1.12,6.85-1.52,10.3-.31,2.65-.25,5.35-.58,8-.55,4.43-.98,8.86-.93,13.34.02,1.88,0,3.76,0,5.63,0,1.39-.22,2.83.08,4.15.8,3.52,1.04,7.17,2.41,10.56.21.52.32,1.08.46,1.62,1.45,5.78,2.77,11.59,4.38,17.33,2.74,9.77,5.65,19.49,8.54,29.22.61,2.06,1.43,4.06,2.16,6.12Zm215.25,51.13c-1.34-1.78-2.24-3.22-3.38-4.44-1.16-1.24-2.49-2.34-3.83-3.39-6.03-4.71-12.41-8.84-19.47-11.85-4.53-1.93-9.07-3.82-13.67-5.56-3.39-1.28-6.86-2.33-10.32-3.41-1.91-.6-2.42-.25-2.73,1.81-.27,1.84-.47,3.7-.58,5.55-.27,4.59-2.43,7.89-6.48,10.06-3.13,1.67-6.35,1.77-9.65.76-2.56-.79-5.12-1.61-7.06-3.61-2.78-2.87-2.42-6.01.95-8.1.48-.3,1.06-.44,1.51-.76.97-.68,1.88-1.43,2.82-2.15-1.79-.39-3.39-.4-4.99-.39-.32,0-.67.04-.95.18-2.81,1.39-5.57,2.89-8.42,4.19-1.41.65-2.48,1.54-3.14,2.9-.76,1.56-2.03,2.41-3.55,3.13-3.22,1.52-6.67,1.77-10,1.21-2.63-.45-5.26-1.69-5.73-5.01-.03-.2-.3-.37-.47-.58-.8.41-1.59.82-2.37,1.23-3.25,1.71-6.73,2.34-10.35,2.03-2.6-.22-4.72-1.24-6.33-3.52-1.15-1.63-1.35-3.38-1.55-5.23-.54,0-.98-.1-1.35.02-4.18,1.29-8.48,1.4-12.8,1.4-3.25,0-5.84-1.32-7.53-4.12-.74-1.23-1.23-2.63-1.78-3.97-.95-2.29-.17-4.34,1.25-6.07.92-1.12,2.1-1.91,1.92-3.66-.06-.57.55-1.39,1.08-1.81,1.19-.95,2.42-1.96,3.81-2.52,2.72-1.1,5.56-1.91,8.46-2.87-.3-.14-.57-.36-.86-.38-3-.2-6.01-.57-9.01-.51-3.63.07-7.07-.59-10.44-1.84-1.8-.67-3.51-1.58-5.35-2.11-3.41-.98-6.86-1.86-10.33-2.58-1.72-.35-3.61-.6-5.31-.28-6.05,1.13-11.5,3.72-16.5,7.32-4.32,3.12-8.5,6.51-13.89,7.77-1.6.37-1.93,1.22-1.28,2.6,2.72,5.78,5.45,11.55,8.21,17.31,1.14,2.38,2.7,4.4,5,5.82,2.07,1.28,3.99,2.71,5.41,4.81,1.36,2.01,3.33,2.97,5.9,2.65,1.16-.14,2.38.26,3.58.36.47.04.95-.08,1.43-.1,3.25-.13,6.77-1.68,9.26,2.01.51.75,1.49,1.21,2.31,1.71.92.56,1.29,1.36,1.51,2.37.73,3.29.81,6.41-1.45,9.25-1.89,2.37-3.81,4.77-6.89,5.49-2.98.69-5.98,1.46-9.11,1.12-1.94-.21-3.94-.1-5.81-.57-2.66-.66-5.67-.42-7.86-2.58-.07-.07-.27,0,.04,0-1.44,1.27-2.47,2.68-3.86,3.29-2.34,1.03-4.86,1.76-7.37,2.24-2.54.48-4.58-.69-5.98-2.89-.36-.56-.74-1.1-1.2-1.78-.5,1.91-.95,3.61-1.45,5.52,4.29,2.66,8.69,5.37,13.07,8.11,1.58.99,3.35,1.77,4.26,3.73-2.36.36-4.39-.06-6.29-1.1-1.63-.89-3.23-1.85-4.81-2.84-4.03-2.56-8.03-5.18-12.07-7.73-5.85-3.7-12.27-6.15-18.71-8.59-7.07-2.68-14.19-2.85-21.42-.82-4.02,1.13-8.08,2.15-12.09,3.35-1.26.38-2.87-.32-3.81,1.2-.1.16-.77.08-1.1-.06-.98-.42-1.93-.93-2.93-1.43-.17-.75.16-1.11,1.02-1.15,4-.18,7.77-1.27,11.46-2.79,4.86-2.01,9.69-4.17,15.34-4.13.69-2.33,1.22-4.69,2.09-6.91,1.11-2.87,1.3-5.86,1.32-8.83.04-5.28-.27-10.57-.44-15.86-.02-.69-.06-1.39-.09-1.93-1.43.33-2.74.69-4.07.93-2.38.43-4.74.87-6.94,1.97-1.74.86-3.5,1.69-5.32,2.36-2.16.79-4.4,1.39-6.61,2.07,2.47.12,4.75.39,6.87,1.71,1.99,1.23,4.09,2.3,6.19,3.35,2.4,1.2,4.11,3.16,5.86,5.07.43.46.58,1.19.91,1.9-2.16.54-3.35-.68-4.66-1.58-1.66-1.14-3.29-2.33-4.97-3.43-.95-.61-2.04-1.01-2.97-1.64-3.19-2.12-6.5-2.77-10.38-2.09-5.58.97-10.68,3.06-15.71,5.49-3.73,1.8-6.47,4.5-7.94,8.4-.48,1.26-.93,2.54-1.38,3.76-.92-3.7.21-7.24,1.2-10.79-1.54,1.91-2.46,4.06-2.72,6.42-.6,5.55,1.71,10.14,5.19,14.16,2.28,2.63,5.04,4.69,8.12,6.47,2.91,1.68,5.42,4.03,8.34,5.82,3.25,1.99,6.46,4.03,9.92,5.59,3.9,1.75,7.89,3.3,11.89,4.79,14.2,5.31,28.23,11.12,43.29,13.73,5.2.9,10.37,1.82,15.66,1.78,1.3,0,2.61.03,3.92.11,4.79.28,9.58.63,14.37.85,2.53.12,5.06,0,7.6.03,1.47.01,2.95-.06,4.4.15,3.32.47,6.61.57,9.94-.06,1.74-.33,3.53-.5,5.31-.56,6.03-.21,12.06-.35,18.08-.51.24,0,.49-.01.73-.03,4.12-.31,8.24-.69,12.37-.93,4.22-.24,8.45-.35,12.68-.52.16,0,.33-.01.49-.03,2.56-.31,5.13-.63,7.69-.93,3.13-.37,6.26-.67,9.39-1.09,2.95-.4,5.89-.94,8.84-1.35,3.84-.54,7.73-.78,11.51-1.6,4.71-1.03,9.38-2.3,13.94-3.85,13.28-4.5,26.81-8.3,39.77-13.73,5.98-2.51,11.7-5.59,16.97-9.39,3.39-2.45,6.27-5.46,6.59-10,.11-1.54.41-3.25-.1-4.6-1.21-3.22-2.85-6.27-6.14-8.57,1.75,3.65,4.98,6.21,5.03,10.76Zm-185.18-247.84c3.39-2.49,6.59-5,9.95-7.27,9.05-6.12,18.18-12.13,27.26-18.2,2.9-1.93,5.94-3.63,8.44-6.17,2.03-2.07,4.45-3.75,6.73-5.56,1.71-1.37,3.6-2.53,5.18-4.04,5.4-5.18,9.75-11.22,13.8-17.48,2.06-3.19,3.95-6.45,5.14-10.09,1.35-4.13,2.1-8.36,1.62-12.68-.46-4.16-1.31-8.28-1.87-12.44-.98-7.22-3.22-13.99-6.84-20.31-1.79-3.12-3.93-5.96-6.58-8.41-2.09-1.93-4.18-3.87-6.28-5.79-.42-.38-.84-.77-1.3-1.09-4.12-2.8-8.3-5.52-12.38-8.39-6.81-4.79-14.06-8.74-21.66-11.9-2.14,1.38-4.3,2.79-6.47,4.18-.82.52-1.69.96-2.48,1.51-5.43,3.8-10.88,7.56-16.24,11.46-2.82,2.05-5.49,4.31-8.13,6.6-1.09.95-1.89,2.23-2.88,3.31-2.43,2.63-4.87,5.27-7.37,7.84-3.14,3.23-5.66,6.94-7.98,10.74-4.37,7.13-7.66,14.76-9.74,22.89-1.43,5.55-2.02,11.16-1.07,16.83.6,3.56,1.38,7.11,2.86,10.45,1.89,4.28,3.29,8.85,5.67,12.83,4.55,7.62,9.56,14.97,14.55,22.31,2,2.94,4.3,5.73,6.79,8.27,3.59,3.66,7.47,7.03,11.3,10.6Zm49.68,201.57c.03.15.05.3.08.45,1.73-.27,3.46-.5,5.18-.83.86-.17,1.57.05,1.78.84.29,1.06.67,2.28.4,3.27-.65,2.34-2.54,4.12-4.45,5.16-2.47,1.35-5.26,2.33-8.34,2.16-1.89-.1-3.45-.82-5.05-1.53-1.5-.67-2.39.12-3.41.97-.99.83-1.49,1.84-1.01,3.01,1.74,4.2,3.41,6.13,8.69,5.59,4.02-.41,8.03-.91,12.03-1.47.63-.09,1.45-.53,1.73-1.06.85-1.54,2.12-2.59,3.38-3.76,2.61-2.42,5.56-3.78,9.1-3.99.61-.04,1.22-.36,1.79-.64.58-.28,1.07-.77,1.67-.98,3.53-1.26,6.1-3.59,7.87-6.86.27-.49.74-.87,1.12-1.3.15.11.29.22.44.33-1.49,4.27-3.57,8.16-7.67,10.75q2.84,1.4,2.5,3.32c-.7-.22-1.4-.37-2.05-.66-2.58-1.14-5.15-1.7-7.79-.15-.33.19-.77.29-1.16.3-1.83.03-3.21.97-4.51,2.09,1.07-.3,2.09-.72,3.12-1.1,1.42-.52,2.62-.11,3.38,1.14.71,1.16,1.3,2.41,1.77,3.69.53,1.43.28,2.17-1.02,2.88-1.62.89-3.3,1.75-5.26,1.64-1.39-.08-2.77-.12-4.17-.19.67,1.87,2.08,2.96,3.9,3.25,3.81.6,7.43-.08,10.66-2.28.42-.29.82-1.15.69-1.59-.47-1.54.29-2.67,1.03-3.77,2.57-3.83,6.14-6.35,10.48-7.87,3.81-1.33,7.64-2.64,10.74-5.38,1.25-1.1,2.48-2.2,3.73-3.31.16.14.32.29.48.43-1.17,1.45-2.56,2.75-3.92,4.02-1.38,1.29-2.9,2.44-4.4,3.68.73.72,2.21.86,1.53,2.66-2.48,0-5.13-1.23-7.7.03-2.39,1.17-4.79,2.31-6.61,4.58.95-.1,1.7-.2,2.44-.26,3.07-.28,4.44.97,5.19,4.7.34,1.67-.25,2.26-3.39,3.26-.76.24-1.56.37-2.36.44-.78.07-1.57.02-2.43.02.33,1.87,1.36,3.03,2.88,3.16,3.69.33,7.28.2,10.08-2.95,1.28-1.44,1.84-2.66,1.15-4.57-.37-1.03-.07-2.31-.07-3.72,1.44.79,2.56,1.4,3.75,2.05,6.45-2.89,12.08-7.38,18.75-10-2.37,2.73-4.74,5.46-7.19,8.27.81.23,1.33.43,1.87.52,1.77.28,3.48.59,4.94-1.04,1.17-1.31,2.61-2.37,3.93-3.54.64-.56,1.12-1.53,2.53-.72-2.71,3.3-5.38,6.56-8.04,9.81,4.46-.92,8.74.31,8.3,2.55h-1.58c-.8,2.77-4.19,4.67-7.13,3.88-1.58-.43-3.14-.97-4.99-1.55,1.13,1.68,2.41,2.59,3.93,3.24,2.51,1.08,5.14,1.6,7.83,1.24,3.53-.47,7.03-2.97,6.9-7.4-.1-3.38.73-6.71,1.79-9.96.87-2.66,2.13-5.16,2.2-8.14.06-2.86,1.11-5.68.38-8.6-.1-.39-.03-.81-.03-1.22,0-4.72-.06-9.45.02-14.17.05-2.51.11-5.07.61-7.51.72-3.54.42-6.98-.03-10.5-.26-2.07-.05-4.19-.05-6.3,1,.07,1.96.45,2.54.13,2.1-1.17,4.31-2.33,6.04-3.96,1.86-1.76,3.38-3.95,4.78-6.12,2.7-4.17,3.57-8.61,1.22-13.29-.99-1.98-1.41-2.18-3.39-1.24-.69.32-1.3.91-1.8,1.51-1.48,1.75-2,3.82-1.95,6.1.03,1.53.09,3.13-.28,4.6-.81,3.19-3.18,5.26-5.89,6.8-3.6,2.04-6.55.36-7.42-3.09.67.05,1.38-.07,1.94.16,3.56,1.46,6.22-.94,7.88-3.21.83-1.14,1.57-2.66,1.06-4.11-.96-2.73-.96-5.51-.89-8.73-.97,1.8-1.75,3.24-2.52,4.68-.15-.08-.29-.17-.44-.25,1.94-7.58,5.93-13.99,11.42-19.6-2.42,1.91-4.69,3.94-6.83,6.1-.89.9-1.57,2.04-2.22,3.14-1.69,2.86-3.29,5.77-4.97,8.63-.28.48-.78.83-1.29,1.36,0-1.37.2-2.44-.04-3.41-.85-3.55-.25-7.14-.45-10.7-.14-2.51-.02-5.08-.54-7.5-1.58-7.29-3.88-14.34-8.15-20.58-2.7-3.94-5.24-8-8.13-11.8-3.59-4.7-7.42-9.23-11.26-13.74-2.19-2.57-4.51-5.05-6.93-7.41-1.84-1.79-3.91-3.36-5.91-4.99-4.66-3.8-9.59-7.24-14.83-10.18-9.82-5.5-19.68-10.9-29.59-16.23-10.84-5.83-20.86-12.97-31.24-19.53-6.22-3.93-11.85-8.75-17.32-13.71-.24-.22-.49-.43-.74-.63-4.39-3.66-8.44-7.68-11.87-12.24-2.97-3.95-5.79-8.03-8.46-12.19-3.44-5.36-6.86-10.76-9.92-16.35-2.16-3.94-3.8-8.17-5.48-12.35-2.28-5.66-2.98-11.68-3.59-17.7-.21-2.05.7-4.13,0-6.21-.09-.26.09-.63.19-.94,1.06-3.38,2.01-6.79,3.22-10.12,1.92-5.32,4.02-10.57,7.29-15.26,2.31-3.31,4.4-6.77,6.8-10,1.78-2.4,3.86-4.58,5.89-6.78,1.05-1.13,2.33-2.04,3.43-3.12,2.83-2.78,5.51-5.73,8.46-8.37,2.7-2.42,5.61-4.64,8.57-6.75,3.75-2.67,7.61-5.21,11.5-7.67,1.1-.69,1.47-1.66,1.82-2.7.24-.71-.44-1.3-1.12-1-.81.36-1.56.86-2.31,1.33-4.24,2.63-8.46,5.29-12.72,7.89-3.1,1.89-6.27,3.68-9.4,5.53-1.25.74-2.5,1.48-3.71,2.28-2.16,1.42-4.73,2.51-6.33,4.41-2.77,3.29-6.4,5.84-8.5,9.72-.53.98-1.41,1.78-2.13,2.66-3.7,4.55-6.95,9.39-9.53,14.67-1.18,2.41-1.66,5-1.14,7.57.3,1.47-.44,1.62-1.3,2.15-1.41-1.32-1.59-3.05-1.92-4.65-.72-3.46-1.33-6.94-1.97-10.42-.52-2.86-.97-5.73-1.51-8.58-.62-3.32-1.2-6.63-2.63-9.75-2.23-4.88-5.48-8.86-9.41-12.54-5.29-4.95-10.79-9.65-16.4-14.21-6.57-5.33-13.79-9.17-22.46-10.14-4.44-.5-8.81-.49-13.09.27-5.21.92-9.89,3.35-14.05,6.72-2.64,2.14-5.37,4.17-8.1,6.18-2.54,1.87-5.26,3.5-7.38,5.9-3.03,3.41-6.09,6.78-9.12,10.19-.81.91-1.51,1.91-2.49,3.15,1.44-.5,2.54-.79,3.56-1.25,2.99-1.32,5.95-2.72,7.88-5.53,1.95-2.83,2.84-3.05,6.74-2.46,2.14.32,4.2,1.1,6.32,1.59,3.68.87,7.3,1.01,10.99-.29,8.93-3.15,17.91-6.11,27.38-7.25,1.77-.21,3.56-.67,5.31-.55,3.13.2,6.27.63,9.36,1.19,4.72.86,8.63,3.57,12.64,5.99.89.54,1.68,1.27,2.47,1.96,4.45,3.93,6.87,9.19,9.15,14.47,1.04,2.4,1.49,5.07,2.06,7.66.36,1.65.48,3.35.64,5.04.14,1.45.42,2.94.22,4.35-.69,4.9-.83,9.7,1.37,14.3.21.43.33.91.44,1.38.41,1.82.43,3.64.02,5.38-1.02.31-1.18-.21-1.53-.86-.6-1.12-1.47-2.09-2.29-3.08-.14-.17-.74-.22-.83-.1-.21.26-.38.72-.3,1.01.42,1.46.91,2.9,1.41,4.34,1.41,3.99,1.61,8.21,2.26,12.33.52,3.33.51,6.75,2.78,9.56.22.27.13.78.22,1.18.52,2.27.77,4.66,1.65,6.78,2.16,5.23,4.81,10.23,7.9,14.99,3.15,4.87,6.24,9.78,9.34,14.68,2.9,4.58,5.62,9.29,8.71,13.74,2.4,3.46,5.13,6.71,7.94,9.86,2.26,2.53,4.73,4.9,7.33,7.07,2.54,2.11,5.37,3.87,8.06,5.79,3.43,2.45,6.69,5.19,10.32,7.29,9.25,5.33,18.64,10.43,28.04,15.5,7.08,3.82,13.49,8.57,19.67,13.67,3.19,2.63,6.44,5.18,9.61,7.82,2.74,2.28,5.41,4.66,8.12,6.98,3.96,3.37,6.62,7.98,10.72,11.22.19.15.34.35.51.53,2.16,2.19,4.28,4.42,6.49,6.55,1.75,1.7,3.89,3.07,5.37,4.97,2.83,3.63,5.55,7.4,7.88,11.36,1.74,2.97,2.73,6.32,3.19,9.84.36,2.85.58,5.6-.05,8.42-.58,2.59-.91,5.23-1.56,7.8-1.17,4.68-2.13,9.45-3.82,13.94-2.97,7.89-6.9,15.35-11.54,22.39-3.92,5.95-7.83,11.91-12.35,17.46-3.77,4.63-7.81,8.96-12.38,12.77-2.81,2.34-5.77,4.5-8.75,6.81,2.77.94,3.28,1.41,3.5,3.32-.88-.37-1.67-.73-2.47-1.05-.82-.32-1.68-.94-2.47-.86-3.06.28-6.11.78-9.15,1.22-.68.1-1.35.31-2.03.46Zm48.59-272.28c.04.17.08.35.13.52-.61.29-1.19.66-1.83.85-3.02.92-6.07,1.75-8.42,4.09-.29.29-1.08.29-1.54.14-1.26-.43-1.74-1.49-1.56-2.95.49-3.77.97-7.53,1.43-11.3.08-.64.04-1.31,0-1.96-.14-2.02-.31-4.03-.46-6.05-.05-.73-.03-1.47-.11-2.2-.27-2.49-.76-4.98-.83-7.47-.15-4.99-1.97-9.44-4.15-13.77-1.09-2.16-2.49-4.16-3.63-6.29-1.84-3.43-4.36-6.39-7.43-8.6-3.87-2.78-6.92-6.39-10.57-9.38-3.34-2.74-6.81-5.21-10.7-7.07-1.67-.8-3.41-1.47-5.07-2.29-4.06-2-7.95-4.43-12.17-5.98-5.93-2.18-11.12-5.79-16.93-8.18-3.85-1.59-7.39-4-10.91-6.27-4.67-3.01-9.27-6.15-13.77-9.4-5.96-4.31-11.82-8.75-17.68-13.2-4.57-3.47-8.98-7.17-13.64-10.51-5.2-3.74-9.47-8.37-13.46-13.29-3.17-3.9-5.83-8.16-8.2-12.59-1.6-3-3.21-5.99-4.61-9.08-1.58-3.49-2.13-7.22-2.6-11.04-.54-4.43-.43-8.73.54-13.04.81-3.62,1.61-7.25,2.68-10.79.69-2.3,1.74-4.51,2.84-6.65,1.18-2.3,4.46-5.13,7.77-7.1,1.5-.89,2.99-1.93,4.63-2.45,6.34-2.02,12.2-5.1,18.24-7.8.73-.33,1.39-.81,2.1-1.2,3.91-2.19,7.46-4.87,10.74-7.91,1.78-1.65,3.66-3.21,5.4-4.9,1.1-1.07,1.94-2.42,3.09-3.44,3.59-3.21,5.51-7.35,6.8-11.84,1.55-5.45,2.27-11.08,3.53-16.58,1.07-4.65,1.59-9.28,1.37-14.01-.1-2.27-.43-4.54-.46-6.81-.09-7.11-.07-14.21-.42-21.31-.15-3.02-.96-6.08-.14-9.13.04-.14-.07-.31-.1-.47-.28-1.67-.56-3.33-.82-5-.68-4.38-1.13-8.81-2.07-13.14-1.51-7-3.3-13.94-5.04-20.89-.98-3.91-1.82-7.84-2.21-11.86-.17-1.74-.35-3.47-.52-5.21-1.99,1.02-3.71,2.08-5.55,2.82-5.85,2.35-12.08,3.03-18.26,3.37-8.93.5-17.89.13-26.8-.89-1.77-.2-3.55-.29-5.31-.52-3.36-.44-6.69-1.09-10.06-1.38-3.4-.3-6.69-.98-9.93-1.98-2.82-.87-5.61-1.86-8.91-2.97.99.79,1.6,1.29,2.21,1.77,2.12,1.62,4.7,1.98,7.18,2.67,7.07,1.98,14.25,3.38,21.54,4.21,2.48.28,3.18.55,4.58,1.85-2.92-.26-5.42-.37-7.88-.73-3.41-.51-6.82-1.1-10.18-1.88-3.76-.87-7.44-2.05-11.19-2.95-1.83-.44-3.5-1.1-5.09-2.1-2.2-1.38-4.21-2.94-5.66-5.37-.62,1.85-1.04,3.51-1.74,5.04-1,2.21-2.19,4.33-3.35,6.47-.61,1.13-1.44,2.15-1.97,3.31-2.3,5-3.53,10.36-4.84,15.65-1.3,5.25-2.65,10.51-4.73,15.45-2.43,5.76-4.11,11.67-5.69,17.68-2.03,7.7-3.7,15.49-6.17,23.09-1.49,4.59-2.32,9.41-2.08,14.32.06,1.22.25,2.53-.09,3.66-.99,3.21.05,6.3.37,9.4.42,4.03,2.02,7.77,3.59,11.5,1.89,4.51,4.34,8.73,7.56,12.34,3.02,3.39,6.51,6.38,9.88,9.45,1.24,1.13,2.7,2.06,4.13,2.97,3.41,2.16,6.87,4.23,10.29,6.37,1.72,1.07,3.34,2.33,5.12,3.28,2.95,1.58,6.01,2.93,7.89,5.95.55.88,1.67,1.45,2.1,2.37,1.77,3.81,3.73,7.58,4.97,11.57,1.59,5.11,2.25,10.44,2.05,15.83-.12,3.16.33,6.34-.43,9.49-.23.95-.22,2.01.56,3,1.08,1.37,2.05,2.88,2.79,4.46,2.19,4.67,4.26,9.4,6.33,14.12.31.72.36,1.56.52,2.34-.18.07-.36.13-.53.2-.69-1.15-1.47-2.26-2.06-3.46-2.17-4.41-4.15-8.91-6.44-13.25-1.51-2.87-3.43-5.56-6.74-6.67-4.58-1.53-9.18-3-13.76-4.52-.32-.11-.56-.46-.84-.7.06-.14.12-.29.17-.43,4.39,1.22,8.79,2.45,13.59,3.78-4.36-2.93-8.52-5.4-13.14-6.98-3.24-1.11-6.59-1.58-10.03-1.5-3.24.08-6.47-.05-9.68.75-5.37,1.33-10.46,3.4-15.46,5.7-1.41.65-2.7,1.54-4.17,2.39,1.4.81,2.5,1.45,3.72,2.16.99-1.18,1.85-2.35,2.86-3.38,1.99-2.04,3.23-1.62,4.75-.09,1.08,1.08,2.09,2.23,3.09,3.3.98-1.24,1.96-2.63,3.1-3.86,1.56-1.67,2.56-1.62,4.36-.2.96.76,2.06,1.35,2.96,1.92,1.16-.69,1.71-2.08,2.99-1.28.84.52,1.52,1.3,2.26,1.96,1.19-1.88,1.06-4.73,4.28-5.48.87,1.29,1.77,2.63,2.62,3.9.51-.36,1.02-.72,1.48-1.04.51.3.95.43,1.19.72,1.43,1.74,3.39,2.43,5.48,2.89,1.36.29,2.62.7,3.67,1.73.48.46,1.56.99,1.92.77,2.15-1.31,3.66,1.28,5.65.83.2-.05.67.93.95,1.47.16.31.13.97.29,1,1.5.3,1.64,1.72,2.1,2.7,1.27,2.69,2.2,5.54,3.47,8.23,4.81,10.14,10.82,19.39,19.7,26.56,5.17,4.17,10.67,7.84,16.34,11.26,3.25,1.96,6.75,3.53,9.88,5.66,4.6,3.13,8.97,6.6,13.43,9.93,2.92,2.18,5.66,4.65,8.77,6.5,7.5,4.45,15.14,8.64,22.77,12.86,7.98,4.41,16.01,8.73,24.01,13.1.42.23.81.52,1.21.79,3.41,2.27,6.85,4.52,10.22,6.84,1.25.86,2.42,1.87,3.54,2.91,1.44,1.33,2.68,2.88,4.2,4.1,4.5,3.58,7.61,8.18,10.16,13.25,3.64,7.25,5.11,15.07,6.25,22.99.26,1.84.43,3.7.55,5.55.18,3.08.68,6.21.33,9.23-.66,5.74-2.63,11.14-5.68,16.08-3.49,5.65-7.01,11.28-11.68,16.07-3.29,3.37-6.62,6.71-10.02,9.98-1.1,1.06-2.6,1.7-3.66,2.79-2.82,2.89-6.2,4.98-9.59,7.05-12.33,7.51-24.39,15.41-35.9,24.14-.61.46-1.22.92-1.93,1.45.91.64,1.56,1.09,2.45,1.7,2.05-1.72,4.06-3.46,6.13-5.12,2.02-1.61,4.05-3.21,6.17-4.68,2.13-1.47,4.39-2.78,6.59-4.15-5.12,5.81-11.24,10.37-17.63,14.82,1.09.86,2,1.57,2.88,2.27.73-.66,1.26-1.17,1.82-1.64,3.74-3.11,7.5-6.2,11.22-9.33,1.62-1.36,3.1-2.91,4.78-4.19,3.81-2.89,7.68-5.69,11.58-8.46,2.7-1.92,5.56-3.63,8.22-5.61,2.79-2.08,5.37-4.45,8.16-6.56,5.27-3.98,10.07-8.39,14.39-13.41,4.63-5.37,9.7-10.34,14.47-15.59,3.68-4.04,8.26-6.81,12.83-9.61,1.49-.91,3.23-1.5,4.92-1.96,4.92-1.36,9.88-2.58,14.83-3.86-.04-.17-.09-.34-.13-.52-1.16.29-2.32.56-3.47.86-3.51.9-7.02.84-10.61.36-3.34-.44-6.77-.51-9.38,2.39,1.89-.94,3.83-1,5.81-.57Zm-152.84,156.94c-.17.1-.35.19-.52.29-1.49-2.47-3.27-4.81-4.4-7.43-1.56-3.63-3.89-6.85-5.34-10.54-.94-2.38-2.25-4.64-3.62-6.83-3.69-5.89-7.08-11.98-11.62-17.32-2.03-2.38-3.77-5.03-5.44-7.68-1.11-1.76-2.03-3.69-2.75-5.64-.78-2.11-.23-3.29,1.72-4.74.88-.66,1.56-1.37,1.56-2.6,0-.71.31-1.41.45-2.12.66-3.23,2.87-4.5,6.11-3.53.81.24,1.63.45,2.47.68.27-2.68-.28-4.03-2.55-6.62-9.31,2.4-12.68,8.83-12.51,15.47,1.45-3.99,1.65-4.92,4.11-6.08-.04.27-.03.5-.11.71-.8,2.11-1.58,4.22-2.42,6.32-.62,1.56-.75,3,.36,4.46.65.85,1.05,1.89,1.68,3.07-2.51-.54-4.47-2.48-7-1.53-3.78-1.3-7.21-.11-10.43,1.69-2.82,1.56-5.46,3.45-8.18,5.17-.64.4-1.31.75-1.97,1.12,2.45-3.71,5.5-6.58,10.13-8.34-3.93.05-7.97,1.38-10.62,3.33-2.42,1.78-4.29,3.95-4.67,7.06-.24,2-.35,4.03-.48,6.04-.26,3.85,1.59,6.55,5.03,8.83.07-1.23.11-2.17.19-3.11.17-2.18.19-4.38.57-6.52.39-2.21,2.32-3.58,4.56-3.61.71-.01,1.42,0,2.03,0,.22-.77.42-1.46.62-2.15.92-3.26,1.72-3.71,5.1-2.85.12.03.29-.11.61-.24.26-.71.54-1.54.87-2.36,1.15-2.85,2.73-3.68,5.72-3.09,3.11.61,6.05,1.65,8.79,3.28,1.33.79,2.6,1.51,3.42,2.96.82,1.46,1.98,2.73,2.99,4.09,3.52,4.74,6.79,9.63,9.22,15.04,1.13,2.51,2.32,4.99,3.5,7.47,2.01,4.21,4.1,8.4,6.06,12.63,2.13,4.6,3.43,9.4,2.99,14.55-.08.89-.17,1.85.07,2.68.62,2.14-.37,4.09-.6,6.17-.69-4.15-1.37-8.29-2.14-12.94-.87,2.89.76,5.2-.5,7.61-.4-1.74-.8-3.48-1.2-5.22,0,2.11.41,4.19.39,6.28-.04,4.72-.29,9.43-.46,14.15,0,.24-.04.49-.08.73-.45,2.45-.98,4.89-1.36,7.35-.74,4.86-1.77,9.65-3.29,14.33-1.57,4.83-3.27,9.62-4.71,14.49-1.08,3.66-.38,8.05,3.75,10.61,1.58.98,3.29,1.72,4.93,2.61.46.25.86.6,1.62,1.14-5.25,2.38-10.37,3.35-15.67,2.86-1.52,3.26-3.22,6.18-3.87,9.57-.22,1.13-.08,1.91.54,2.84,1.73,2.61,4.14,4.25,6.99,5.32,1.02-1.49.46-3.65,2.1-5.12.27.81.63,1.47.7,2.17.23,2.35.25,4.72.56,7.06.31,2.3.35,4.64,1.28,6.88.98,2.37,1.65,4.88,2.26,7.38.59,2.42.9,4.91,1.41,7.36.88,4.29,1.4,8.62,1.41,13.01,0,.96.23,1.92.33,2.88.06.64.13,1.3.09,1.94-.12,1.95-.42,3.89-.4,5.83.03,3.44-.52,6.75-1.57,10.01-.56,1.73-1.02,3.48-1.48,5.06,3.69.8,7.09,1.54,10.53,2.28,0-1.1-.08-2.13.02-3.15.1-1.03.56-2.06.51-3.07-.05-.98-.67-1.96.58-2.61,1.18,1.62.7,3.98,2.43,5.53.83-1.74.99-3.73,2.59-5.26.14,3.75,1.57,6.94,2.43,10.28.67,2.59,2.26,3.39,4.59,3.86-1.01-2.7-.53-4.36,1.37-5.54,1.93-1.2,3.97-.92,6.19-.33-.43-1.55-.88-2.82-1.13-4.13-.24-1.26-1.11-2.47-.32-4.39.5,1.2.78,1.99,1.15,2.72.95,1.86,1.71,3.87,2.97,5.49,1.89,2.43,4.17,4.55,6.24,6.84.85.93,1.69,1.32,3.01.92,1.76-.53,3.63-.72,5.41-1.19,1.79-.47,2.3-1.41,1.8-3.56-.5.39-.76,1.06-1.23,1.46-2.13,1.79-4.37,1.72-6.31-.1-.6-.56-1.07-1.38-1.77-1.66-1.07-.42-.59-1.27-.88-1.88-.5-1.03-.17-1.8.57-2.34,1.12-.83,2.37-1.48,3.71-2.29-1-2.12-2.67-4.29-2.77-7.09,1.41,0,1.51.99,1.89,1.64,1.07,1.83,2.26,3.52,4.13,4.67,2.41,1.48,4.77,3.03,6,5.77.29.65.78,1.25,1.29,1.77,1.13,1.15,2.23,2.51,3.92,2.67,3.15.3,6.32.48,9.48.5,3.11.02,6.18.01,9.22-1.25,4.43-1.84,6.26-6.31,4.07-10.32-1.83.98-3.56,2.44-5.5,2.81-2.34.45-4.87.12-7.28-.15-1.63-.18-3.2-.83-4.73-1.25-.1-2.04-.28-3.74,1.7-4.78-2.12.72-3.66-.26-5.12-1.5-1.94.84-3.81,1.64-6.12,2.63.89-2.46,2.61-3.37,4.21-4.47-.24-.36-.37-.68-.6-.88-3.27-2.9-6.61-5.7-10.58-7.64-1.31-.64-2.58-1.37-3.83-2.13-.36-.22-.57-.67-1.22-1.47,2.07.36,3.59.62,5.23.91-.51-1-.98-1.86-1.38-2.74-2.53-5.51-4.92-11.1-7.6-16.54-2.82-5.74-5.34-11.58-7.13-17.71-1.99-6.8-3.73-13.68-5.92-20.42-2.54-7.84-4.58-15.79-6.33-23.82-.75-3.46-1.33-6.95-1.94-10.43-.37-2.14-.96-4.3-.93-6.44.07-5.86-.43-11.71.38-17.58.72-5.2.92-10.48,1.55-15.7.53-4.4.98-8.86,2.09-13.13,3.62-13.98,8.27-27.56,17.46-39.05,3.7-4.63,7.42-9.27,11.47-13.58,2.84-3.02,5.77-5.95,8.54-9.05,1.74-1.94,2-4.05,2.09-6.54-.4.21-.64.29-.81.44-2.07,1.92-4.14,3.85-6.2,5.78-1.01.95-1.93,2-3.01,2.84-3.43,2.69-6.08,6.1-8.91,9.35-2.4,2.76-4.67,5.63-7.15,8.31-1.95,2.1-3.62,4.32-4.91,6.88-1.31,2.6-2.8,5.12-4.26,7.64-.37.63-.94,1.15-1.41,1.72-.23-.54-.22-.92-.07-1.24,1.96-3.98,3.88-7.98,5.94-11.92.55-1.05,1.5-1.89,2.28-2.82,2.33-2.79,4.66-5.59,7.02-8.35,2.37-2.78,4.71-5.59,7.2-8.26,1.55-1.66,3.39-3.04,5.03-4.61,1.89-1.81,3.68-3.71,5.56-5.52.98-.94,2.07-1.75,3.12-2.63-.71-.98-1.31-1.8-1.92-2.64-.76.68-1.31,1.29-1.98,1.75-5.77,4.01-10.79,8.89-15.9,13.65-5.24,4.88-9.53,10.63-13.72,16.41-2.69,3.72-5.36,7.49-7.69,11.44-3.04,5.15-5.78,10.48-8.52,15.8-.6,1.16-1,2.67-.82,3.92.3,2.11.54,4.28,1.48,6.3.87,1.86,1.48,3.85,2.21,5.78Zm77-244.34c1.22,1.13,2.3,1.09,3.49.43,2.13-1.18,4.25-2.37,6.44-3.41,5.93-2.8,11.92-5.46,17.83-8.29,11.91-5.7,24.36-10.12,36.52-15.21,7.4-3.1,14.72-6.42,21.41-10.86,4.65-3.09,8.92-6.74,13.37-10.13,3.77-2.87,7.22-6.08,10.47-9.53,3.02-3.21,6.09-6.37,9.11-9.58.78-.82,1.56-1.67,2.19-2.61,2.64-3.92,5.76-7.43,9.1-10.77,1.79-1.8,3.63-3.5,6.32-3.66,1.01-.06,2.04.25,3.07.27,1.75.03,2.48.44,3.16,2.07.36.87.64,1.77.97,2.69,2.88-1.59,4.81-.66,5.1,2.23.02.16,0,.33,0,.49.17,1.77.21,3.57.57,5.31.29,1.43.97,2.77,1.48,4.15.2-.02.39-.05.59-.07.04-.77.12-1.53.11-2.3-.05-4.31.12-8.62-.43-12.93-.32-2.53-.92-4.92-1.97-7.21-.61-1.31-1.42-1.63-2.93-1.27-1.48.35-2.95.76-4.8,1.24,4.27.54,6.36,2.51,6.88,6.25-.42-.11-.85-.11-1.13-.32-.97-.72-1.83-1.6-2.84-2.26-.84-.55-1.89-1.32-2.75-1.22-4.68.56-8.81,2.47-12.2,5.82-2.71,2.68-5.39,5.38-8.11,8.04-.32.31-.81.46-1.67.92,1.33-2.23,2.4-3.86,4.09-5.11,2.09-1.55,3.37-3.91,5.06-5.85,2.12-2.44,3.67-5.09,4.74-8.09,1.58-4.47,3.26-8.91,4.28-13.54.48-2.19,1.05-4.46.95-6.66-.15-3.12-1.28-6.01-3.99-7.98-.65-.47-1.26-1.01-1.88-1.52-2.16-1.76-3.75-3.68-2.9-6.83.43-1.59.12-3.22-1.48-4.32-.73-.5-1.34-1.21-1.9-1.9-.7-.86-1.32-1.8-.71-3.08q.78,1.5,3.3,3.09c3.08,1.95,3.8,3.65,3.08,7.31-.32,1.62-.11,2.47,1.24,3.08,4.16,1.87,5.32,5.96,7.29,9.33.41-4.12-2.87-7.41-3.44-12,5.86,5.17,6.04,11.47,5.56,18.34.87-1.27,1.64-2.19,2.17-3.23.35-.68.64-1.6.46-2.29-.92-3.67-1.75-7.4-3.11-10.91-.83-2.14-1.5-4.08-1.18-6.4.23-1.68-.01-3.43.11-5.13.24-3.22.83-6.44.87-9.66.11-10.94.07-21.89.02-32.83-.01-2.18-.33-4.36-.56-6.53-.26-2.4-.69-4.8-.86-7.21-.26-3.73-.35-7.47-.52-11.2-.01-.24-.05-.49-.07-.73-.3-2.65-.59-5.3-.9-7.94-.23-1.92-.47-3.85-.75-5.76-.38-2.63-.81-5.26-1.21-7.89-.42-2.7-.81-5.42-1.27-8.11-.69-4.04-1.41-8.08-2.17-12.12-.56-2.99-1.19-5.96-1.79-8.95-.4.29-.48.52-.46.73.31,2.4.6,4.8.96,7.19.58,3.82,1.23,7.63,1.83,11.44.54,3.42,1.07,6.84,1.59,10.26.29,1.91.56,3.82.8,5.73.4,3.2.82,6.4,1.15,9.61.24,2.33.33,4.68.53,7.02.3,3.54.65,7.08.95,10.63.2,2.42.22,4.86.56,7.26.53,3.77.93,7.54.93,11.36-.01,7.84,0,15.68,0,23.52,0,.9-.03,1.8-.1,2.69-.28,3.8-.56,7.59-.89,11.39-.17,1.99-.44,3.97-.68,6.12-3.94-4.53-8.46-8.16-12.86-12.15-.16.62-.17.97-.33,1.24-2.22,3.91-1.98,6.04,1.03,9.09.12.12.22.24.35.34,1.01.76,1.37,1.76,1.22,3-.07.56.04,1.15-.02,1.71-.23,2.39.73,4.27,2.46,5.81,1.27,1.13,2.51,2.29,3.85,3.34,2.25,1.78,2.32,4.11,1.85,6.62-.09.47-.24.94-.3,1.41-.48,4.07-5.03,8.51-9.85,9.06-.59.07-1.25-.2-1.85-.41-2.95-1.02-4.59-3.54-5.52-6.12-1.92-5.36-3.22-10.93-4.9-16.38-1.43-4.62-3.05-9.17-4.56-13.76-2.56-7.81-5.36-15.52-8.93-22.93-2.87-5.96-5.88-11.85-8.9-17.74-1.44-2.8-3.22-5.43-4.55-8.28-1.86-3.99-4.64-7.58-5.4-12.08-.26-1.55.06-2.88.9-4.11,2.18-3.24,5.11-5.6,8.63-7.27,4.24-2.01,8.47-4.03,12.66-6.15,3.86-1.95,7.25-4.6,10.42-7.52,3.87-3.56,6.62-7.97,9.33-12.39,1.1-1.79,1.87-3.73,2.1-5.89.21-1.99.75-3.94,1.06-5.93.22-1.41.29-2.84.48-4.81-1.95.83-3.46,1.33-4.84,2.07-7.36,3.98-15.19,6.69-23.29,8.65-3.52.85-7.06,1.6-10.62,2.27-4.12.77-8.25,1.77-12.41,1.98-6.1.3-12.28.6-18.4-1.89.34.8.51,1.33.77,1.82,2.05,3.85,4.1,7.7,6.19,11.53,3.56,6.53,7.21,13.01,10.72,19.57,1.98,3.7,3.72,7.52,5.62,11.25,2.21,4.32,4.5,8.59,6.72,12.91,1.85,3.6,3.62,7.23,5.47,10.83,1.96,3.81,4.19,7.5,5.89,11.42,2.69,6.21,5.11,12.54,7.52,18.87,2.09,5.49,4.17,11,5.93,16.6,2.38,7.59,4.86,15.18,5.48,23.19.35,4.52.76,9.04.91,13.57.09,2.66-.16,5.35-.49,8-.29,2.31-.74,4.62-1.4,6.85-1.24,4.2-3.87,7.68-6.65,10.92-6.61,7.71-14.78,13.69-22.87,19.7-2.84,2.11-6.04,3.75-9.17,5.41-5.73,3.03-11.44,6.13-17.35,8.8-6.71,3.03-13.61,5.63-20.43,8.42-6.73,2.75-13.48,5.46-20.18,8.29-2.75,1.16-5.48,2.38-7.76,4.47-1.16,1.06-2.81,1.59-4.68,2.6,1.21-2,2.22-3.44,3.01-4.99,2.19-4.3,4.95-8.34,6.14-13.11,1.41-5.61,3.48-10.85,8.34-14.88-2.94-.32-3.08,3.14-5.51,3.22-.39-3.19.14-6.17,1.02-9.11.2,0,.4,0,.6,0,.12,1.78.24,3.57.35,5.15,2.3-1.18,3.76-3.46,4.83-6.06.15-.37.36-.73.6-1.06,1.95-2.6,2.24-5.45,1.35-8.51-.26-.89-.35-1.84-.59-3.17,1.01.83,1.67,1.37,2.34,1.92,2.6-4.93,5.18-7.63,7.57-7.83-1.2,1.6-2.25,3.25-3.56,4.66-2.12,2.27-3.34,4.87-3.63,7.76,2.2-2.02,4.5-4.06,6.72-6.17,1.67-1.59,3.11-3.5,3.26-5.81.22-3.35.6-6.74.04-10.11-.06-.38-.32-.72-.52-1.14-1.55,1.08-2.14,2.65-2.78,4.25-.45,1.11-.6,2.61-2.21,2.92-1-.69-1.33-1.61-1.32-2.76,0-1,.23-2.05-.27-3.1-1.43,1.33-1.46,1.33-1.48,2.94-.03,1.88-.04,3.76,0,5.64.03,1.57-.49,2.79-1.85,3.62-2.45-1.6-1.42-4.99-3.79-6.92-.45.79-1.15,1.46-1.14,2.11.04,2-.63,3.98.12,6.03.39,1.07.35,2.45.07,3.58-.41,1.66-.79,3.28-.79,5.01,0,2.07-1.14,3.51-3.03,4.3-1.39.58-3.26.12-3.9-1.12-.81-1.56-1.65-3.19-2.01-4.89-.55-2.59-.7-5.26-1.03-7.9-.06-.48-.18-.96-.27-1.44-.17.02-.33.04-.5.05v7.2c-2.37-2.41-4.73-4.34-6.49-6.72-1.72-2.34-2.82-5.13-4.44-8.17.58,3.78,1.51,6.88,3.84,9.42,1.81,1.97,3.68,3.9,5.42,5.94,2.22,2.61,3.94,5.54,5.19,8.72.34.86.43,1.94.25,2.85-.1.52-.94.92-1.5,1.3-.06.04-.48-.45-.51-.48-1.03.4-1.98.78-2.92,1.15.02.04.06.24.18.32,4.54,3.14,5.95,7.13,4.48,12.3-1.52,5.36-3.73,10.43-6.46,15.27-1.18,2.1-3.04,3.86-3.99,6.03-1.19,2.7-3.86,2.91-5.81,4.31-.46.33-.93.63-1.55,1.05Zm-66.54-301.32c.09-.23.17-.45.26-.68,10.34.41,20.52,1.5,29.65,7.19.03-.22.1-.4.05-.5-1.59-3-4.31-4.56-7.41-5.42-3.18-.88-6.44-1.42-9.64-2.22-3.85-.97-7.8-1.19-11.71-1.72-3.2-.43-6.42-.67-9.63-1.05-3.68-.44-7.35-1.32-11.03-1.34-6.99-.04-14.01-.6-20.99.39-2.34.33-5.89,1.53-7.67,2.74.44,0,.86.07,1.25-.01,4.19-.92,8.41-1.56,12.72-1.45.8.02,1.61-.13,2.42-.19,1.37-.1,2.76-.33,4.12-.24,3.71.24,7.43.51,11.12.96,2.62.32,5.21.94,7.81,1.47.27.06.49.39.76.62-1.35,0-2.53.07-3.71-.01-4.37-.29-8.73-.73-13.1-.91-2.17-.09-4.36.44-6.54.41-4.32-.07-8.58.37-12.83,1.03-2.7.42-5.45.65-7.89,2.11-.94.56-1.5,1.26-1.46,2.31.14,3.39.62,5.5,4.04,6.65.92.31,1.81.69,2.72,1.03,4.02,1.49,8.13,2.54,12.42,2.94,3.44.32,6.85,1.02,10.29,1.4,3.94.43,7.89.7,11.84,1.02,3.96.33,7.91.8,11.87.91,3.08.09,6.17-.28,9.25-.45.08,0,.16,0,.24-.01,3.19-.48,6.39-.9,9.56-1.48,2.94-.53,5.84-1.31,8.4-2.92,1.28-.8,2.52-1.73,3-3.32-1.97-1.71-4.08-2.95-6.43-3.91-4.05-1.65-8.16-2.93-12.53-3.41-2.87-.31-5.71-.91-8.55-1.4-.9-.16-1.79-.38-2.68-.58Zm233.11,368.73c0,.23,0,.47,0,.7-.75.05-1.5.11-2.25.16-1.05.07-2.1.18-3.16.21-2.51.06-5.03.21-7.54.09-2.67-.12-5.35-.89-7.97-.7-3.98.29-7.92,1.16-11.88,1.79,1.69.44,3.37.2,4.94.5,2.63.51,5.26.73,7.92.94,2.53.21,5.18.12,7.56,1.33,1.87.95,3.73,1.92,5.64,2.8,1.08.5,2.22.91,3.38,1.18,2.34.56,4.71,1.02,7.08,1.48,1.1.21,2.22.41,3.33.48,3.76.23,7.46.06,10.85-1.91.27-.16.6-.24.9-.34,1.87-.61,3.85-1.06,5.74-.56,2.01.53,3.94.28,6.09.34-.26-.38-.35-.63-.53-.75-3.88-2.8-7.95-5.35-12.51-6.84-3.04-1-6.27-1.42-9.41-2.13-4.25-.96-8.5-1.81-12.82-2.45-4.29-.63-8.31.12-12.42.79,5.73.77,11.5,1.24,17.06,2.9Zm-24.63-104.53c-.04.16-.08.33-.12.49-.48,0-.98.08-1.44-.01-5.19-1.05-10.25-2.72-15.58-3.16-3.99-.33-7.89-.41-11.81.59-4.17,1.07-7.92,3.13-11.87,4.71-1.91.77-3.83,1.52-5.74,2.29,4.16-.87,8.3-1.21,12.51-1.18,4.81.03,9.61-.22,14.42-.18,1.49.01,3.34.11,4.4.95,1.91,1.51,3.87,1.87,6.12,1.72.89-.06,1.8.03,2.69-.02,1.3-.07,2.44.34,3.26,1.32,1.55,1.85,3.35,1.95,5.49,1.21,2.94-1.02,3.08-.88,4.95,1.77,1.22,1.73,2.48,3.42,4.44,4.44,2.14,1.11,3.19.61,3.02-1.72-.1-1.41-.46-2.9-1.08-4.17-1.89-3.84-4.96-6.59-8.73-8.54-1.86-.96-3.75-1.89-5.71-2.61-5.54-2.02-11.15-3.76-17.22-3.03,6.26.9,12.67,1.3,18.03,5.14Zm-15.97-196.98c-.1-.08-.21-.16-.31-.24-.98,1.86-1.98,3.7-2.93,5.57-1.55,3.06-3.44,5.89-5.94,8.24-5.42,5.09-11.61,9-18.48,11.86-4.18,1.74-8.29,3.62-11.86,6.53-1.84,1.5-1.84,3.41-1.49,5.31.3,1.62,1.29,2.91,3.19,3.23,2.22.37,4.27.03,6.29-.93,6.24-2.97,11.18-7.66,16.26-12.15,2.93-2.59,4.92-5.97,6.77-9.39,2.02-3.74,4.02-7.5,5.87-11.33,1.04-2.15,1.76-4.46,2.63-6.7Zm-234.29,293.63c.7-.5.97-.78,1.29-.92,2.86-1.24,5.87-1.81,8.97-1.68,2.66.11,5.3.43,8.37.7-1.2-.93-2.12-1.59-2.97-2.31-3.86-3.28-8.29-4.89-13.37-4.7-3.24.12-5.75,1.44-7.22,4.43-.5,1.01-.97,2.06-1.3,3.13-1.1,3.56-2.25,7.09-4.29,10.19,1.03.4,2.01.78,2.98,1.17,1.02.4,2.04.8,3.31,1.3.28-1.43.47-2.53.72-3.61.42-1.83,1.14-2.29,2.96-1.98.45.08.93.25,1.36.17,1.97-.37,3.94-.77,5.89-1.26,1.01-.25,2.04-.58,2.92-1.11,2.14-1.31,4.32-1.7,6.75-.97.81.24,1.78.47,2.5-.58-.33-.19-.63-.51-.97-.55-1.92-.21-3.85-.46-5.78-.51-3.88-.1-7.78.22-12.13-.92Zm247.97,215.42c2.19.51,4.13,1.31,5.3,3.26,1.38-.51,2.64-1.02,3.94-1.44,2.05-.65,3.19-.24,4.47,1.33.43.52.96,1.06,1.57,1.31,1.98.82,3.32,2.24,4.29,4.44,6.18-1.45,12.48-1.72,19.05.01-7.3-7.91-15.5-13.17-26.16-14.01-5.59-.44-10.84.48-16.48,2.48.73.05.98.13,1.2.07,3.77-1.02,7.6-1.45,11.51-1.46,4.35,0,8.02,1.62,11.36,4.2.29.22.36.73.73,1.54-2.93-.65-5.47-1.03-7.89-1.79-2.71-.85-5.43-.91-8.18-.75-1.58.09-3.14.52-4.72.8Zm-27.67-386.94q-.32-1.89-1.57-2.76c-5.75-3.96-11.93-4.05-18.31-1.92-.96.32-1.89.95-2.64,1.65-3.26,3.02-3.71,6.81-2.78,10.91.13.58.47,1.11.7,1.64.4-.12.58-.13.69-.22,1.7-1.5,3.42-2.97,5.07-4.53,1.48-1.39,3.17-2.07,5.11-1.45,1.09.35,1.95.31,3.02-.03,2.46-.79,4.05-.15,5.69,2.02,2.16-.64,3.85.33,5.48,1.66.55.45.96,1.46,2.07.82-.67-2.44-1.92-4.42-4.19-5.6-2.5-1.3-5.04-2.51-7.55-3.79-.51-.26-.95-.66-1.43-1l.23-.5c3.84-.39,7.2,1.04,10.42,3.11Zm-119.44,36.75c1.62,1.31,1.94,3.16,2.57,4.83,1.22,3.23,1.15,3.26,2.48,4.18-.35-1.59-.84-3.36-1.11-5.16-.4-2.69.44-5.08,1.95-7.33,1.41-2.1,2.21-4.37.31-6.73-3.03-.97-4.01,2.18-6.05,3.12-2.83-.44-2.62-2.68-2.78-4.63-1.2-.25-1.59.33-1.6,1.31-.02,1.31.1,2.62-.05,3.91-.14,1.17-.19,2.68-1.54,3.06-1.23.35-1.96-.75-2.62-1.72-.71-1.03-1.55-1.15-2.42-.32-1.53,1.47-2.14,2.16-.99,4.4,2.75,5.37,7.73,7.43,13.13,9.14-1.2-3.7-5.03-5.26-6.33-8.72.85.22,1.55.58,2.16,1.06.57.45,1.04,1.03,1.57,1.54.52.5,1.06.97,1.59,1.47-.1-1.24-.18-2.33-.27-3.41Zm-6.46-25.68c.07.18.15.37.22.55-1.2,1.34-2.73,1.91-4.58,2.04-1,.07-2.03.44-2.94.88-2.85,1.4-3.57,4.13-4.12,6.95,2.67-3.65,6.29-5.64,10.63-6.62,2.74-.62,5.11-2.03,6.69-4.49.88-1.38.73-2.4-.42-3.4-3.14-2.76-8.97-2.26-11.1.43-.44.56-1.09.96-1.68,1.39-2.1,1.54-2.99,3.04-3.42,5.83,4.05-3.74,5.74-4.81,8.59-5.3-.42.9-.78,1.69-1.12,2.44,1.12-.24,2.19-.47,3.25-.7Zm19.4,57.2c-3.43-.78-5.69.73-7.62,2.7-3.2,3.26-5.5,7.16-7.4,11.29-.89,1.92-.94,3.97-.61,5.97.19,1.15.57,2.49,2.21,3.26-.24-2.69-.15-5.06,2.92-5.7,0-1.3-.05-2.44.01-3.57.08-1.33.82-2.03,2.16-2.11.53-.03,1.07.07,1.74.12,0-.44,0-.84,0-1.24.06-3.09.22-3.29,3.13-4.31.33-.12.73-.38.85-.68.8-2,2.51-2.1,4.07-1.6,1.5.48,1.84-.11,2.2-1.25q-4.74-.65-8.71,1.59c-.35.2-.69.43-1.05.61-.38.19-.78.32-1.44.59,1.43-3.48,4.44-4.35,7.53-5.66Zm38.25-25.76c.6-.55,1.12-1.07,1.68-1.53,3.42-2.8,6.33-6.06,8.89-9.64.41-.58.75-1.25.94-1.93.78-2.79.71-5.61-.02-8.38-.43-1.63-1.06-3.22-1.75-4.77-.22-.49-.91-1.08-1.39-1.08-.9,0-1.05.87-1.03,1.63.02.64.02,1.32.22,1.91,1,2.93.94,5.88.21,8.82-.32,1.31-.81,2.62-2.31,3.06-1.32-.82-1.95-2.02-2.21-3.41-.18-.97-.55-1.46-1.89-1.08.2.89.34,1.73.58,2.54.44,1.46,1.13,2.87,1.39,4.36.56,3.15-.79,5.68-3.06,7.73-.64.58-1.12.95-.26,1.76Zm90.4,150.6c2.25.82,4.5,1.34,6.45,2.41,2.68,1.47,5.3,1.5,8.13.85,1.8-.41,3.51-.07,4.93,1.31,2.09,2.02,4.27,2.12,6.81.46-.8-.87-1.62-1.74-2.4-2.64-1.17-1.36-2.53-2.26-4.43-2.03-1.44.18-2.88.33-4.32.46-2.28.21-4.5-.15-6.71-.71-2.76-.7-5.54-1.26-8.47-.11Zm-87.29-192.02c-3.29-2.15-6.48-4.08-10.41-4.44-.04.43-.11.75-.1,1.07.06,1.77.18,1.89,1.99,1.99.16,0,.33-.02.49,0,2.82.2,3.56,1.35,2.16,3.73-.77,1.32-.78,2.56-.59,3.91,1.67.67,2.35-.63,3.08-1.47,1.68-1.93,3.74-2.06,5.99-1.55.72.16,1.41.45,2.42.79-1.67-2.02-3.39-2.7-5.63-2-.68.21-1.53.42-2.47-.49,1.12-.56,2-1.01,3.06-1.54Zm-14.95,69.69c.6-.39,1.17-.85,1.81-1.16,2.51-1.21,4.28-3.94,7.54-3.66.39.03.82-.47,1.25-.7,1.07-.58,2.16-.61,3.2.03.46.29.84.72,1.27,1.1,1.66-.97,3.03-.51,4.2.79.21-.9.5-1.67.52-2.44.02-.66-.07-1.59-.49-1.94-2.3-1.94-7.71-3.23-10.64.07.8-.32,1.51-.73,2.26-.86.87-.15,1.79-.07,2.68-.04.87.03,1.57.28,1.44,1.66-3.14-.56-5.73.76-8.25,2.23-2.44,1.43-5.53,1.9-6.79,4.92Zm-159.35,422.41c.89-.31,1.78-.65,2.68-.94,7.27-2.28,14.55-4.54,21.82-6.84,3.67-1.16,7.32-2.36,10.97-3.58.3-.1.5-.51.9-.95-2.91.54-33.47,10.14-36.36,12.31Zm259.14-125.48c-1.12,1.69-2.1,3.26-3.16,4.77-2.64,3.78-2.52,2.74-.42,6.61,1.33-1.68.5-3.4-.3-5.11,1.15-.59,2.01-.33,2.69.53.66.84,1.23,1.77.78,2.89-.51,1.26-1.12,2.47-1.85,4.07,1.7-1.24,3.13-2.28,4.55-3.31-3.04-5.12-3.25-6.06-2.29-10.44Zm-50.41-563.43c.01-.19.03-.38.04-.57-2.06-.58-4.09-1.25-6.18-1.7-1.55-.34-3.16-.42-4.75-.6-.99-.11-1.63.33-2.09,1.51.77.42,1.48,1.11,2.25,1.18,1.34.12,2.71-.18,4.07-.24,1.2-.06,2.4-.1,3.6-.02,1.02.06,2.04.3,3.06.46Zm27.42,282.63c-.55-2.36-2.19-2.96-3.99-3.71.48.81.86,1.43,1.24,2.08-1.5.95-2.51-.36-3.68-.54,1.17,1.51,2.29,2.95,3.54,4.56.93-.78,1.9-1.58,2.88-2.4Zm-23.85,88.93c.19.06.38.11.57.17-.34,1.44-.68,2.87-1.09,4.61,1.99-1.86,2.54-3.87,2.35-6.18-.13-1.6-.08-1.61-2.1-1.99-.67,1.54-1.24,3.1-1.08,4.84.07,0,.14-.01.27-.03.34-.46.71-.94,1.08-1.43Zm-67.14,302.74c1.78,1.92,5.19,2.85,6.55,1.95-2.09-.62-4.43-1.32-6.55-1.95Zm-27.46,36.94c-1.86,1.92-4.43,1.7-6.67,2.43,2.49-.04,5.05.14,6.67-2.43Z"/><path d="m336.43,145.65c-.7.28-1.25.66-1.84.72-2.25.23-4.51.46-6.78.51-2.97.06-5.73.76-8.36,2.11-2.44,1.25-4.85,2.58-7.35,3.7-2.9,1.3-5.87,2.01-9.14,1.11-3.82-1.05-5.38-4.32-3.44-7.81,1.57-2.83,4.35-4.02,7.15-5.11,2.44-.95,5.04-.99,7.65-1.08,5.64-.19,11.12.59,16.41,2.52,2.02.74,4.13,1.39,5.7,3.33Zm-14.25-3.34c0-.1,0-.21,0-.31-2.19,0-4.38-.07-6.57.02-2.01.08-4.02.25-6.01.52-1.97.27-3.43,1.34-4.35,3.22,1.11.71,2.15.62,3.13.21,1.55-.64,3.14-1.26,4.56-2.13,1.64-1,3.3-1.61,5.22-1.54,1.34.05,2.68,0,4.02,0Z"/><path d="m308.91,214.4c-.72,2.79-1.47,5.31-2.01,7.88-1.09,5.2-1.45,10.36.52,15.52.62,1.62,1.38,3.32.7,5.35-.82,2.47-2.3,4.23-4.36,5.61-1.15.77-2.31.53-3.34-.33-1.52-1.27-2.29-2.93-2.35-4.89-.24-7.65,1.71-14.68,5.89-21.13,1.31-2.01,2.28-4.24,3.34-6.41.31-.64.3-1.45,1.61-1.61Zm-6.79,18.69c-.13-.02-.25-.04-.38-.06-.55,3.06-1.11,6.12-1.66,9.17.22.04.44.07.66.11.46-3.07.92-6.15,1.38-9.22Z"/><path d="m358.24,166.12c-.5.59-.78,1.22-1.09,1.24-1.99.13-3.34,1.57-4.98,2.37-2.24,1.09-3.5,3.28-4.96,5.2-1.21,1.58-2.8,2.43-4.79,2.35-2.02-.08-2.58-.96-2.25-2.98.36-2.22,1.67-3.68,3.6-4.51,2.05-.88,4.18-1.6,6.33-2.22,2.31-.67,4.68-1.14,7.02-1.68.21-.05.45.09,1.13.24Z"/><path d="m172.6,930.97c.55.58,1.04,1.09,1.53,1.6q-1.39,1.61-4.19,1.18-.19-2.03,2.67-2.78Z"/><path d="m185.85,943.57c1.13-.91,3-1.3,3.77-.69.38.3.67.93.66,1.41,0,.31-.58.83-.96.89-1.38.22-2.79.26-3.48-1.61Z"/><path d="m443.79,930.99c-.12-.97-.47-1.69.66-2.14,1.61-.64,2.12-.62,3.63.74-.82,2.03-2.54,1.4-4.29,1.41Z"/><path d="m429.1,929.05c-.34-1.29-.26-2.43.78-2.95.98-.5,1.85.17,2.51,1.17-.68,1.21-1.49,2.17-3.29,1.78Z"/><path d="m443.82,923.72c-1.45,1.52-2.37,1.81-3.06,1.04-.58-.66-.51-1.52.18-2.12,1.02-.88,1.51-.72,2.87,1.08Z"/><path d="m165.95,943.02c-1.51.13-2.65.23-3.98.34-.04-1.2.13-1.95,1.2-2.17,1.3-.27,1.87.05,2.77,1.83Z"/><path d="m414.44,867.75c-.37.36-.7.78-1.12,1.06-2.91,1.94-6.19,2.19-9.56,2.05-5.26-.23-10.44-.96-15.5-2.48-6.27-1.89-12.3-1.13-18.13,1.73-4.59,2.25-9.49,2.59-14.46,2.09-1.58-.16-3.14-.71-4.68-1.17-5.12-1.53-10.27-3-15.68-2.67-2.73.17-5.51.41-8.15,1.07-1.74.44-3.37,1.56-4.87,2.62-3.7,2.6-7.31,5.32-10.94,8.02-.58.43-1.15.94-1.59,1.51-2.95,3.85-6.9,5.95-11.6,6.79-.64.11-.84.02-1.94-.9.8-.13,1.49-.21,2.18-.36,3.38-.74,6.11-2.55,8.3-5.18,2.94-3.53,6.41-6.45,10.1-9.12,1.71-1.23,3.48-2.39,5.09-3.73,2.08-1.73,4.54-2.56,7.09-2.83,3.79-.39,7.64-.75,11.41-.45,3.49.27,6.91,1.41,10.36,2.16,2.59.56,5.16,1.28,7.78,1.61,3.19.4,6.21-.63,9.2-1.68,2.89-1.01,5.74-2.24,8.72-2.79,2.58-.47,5.35-.44,7.96-.07,4.46.63,8.83,1.86,13.28,2.54,3.03.46,6.14.54,9.21.52,2.45-.02,4.9-.46,7.36-.71l.18.37Z"/><path d="m257.35,818.26c-.5.68-.9,1.24-1.43,1.98-.52,0-1.33.05-2.13-.01-.85-.07-1.23-.61-1.33-1.45-.11-.88.53-1.13,1.1-1.36,1.42-.58,2.65-.14,3.8.85Z"/><path d="m250.13,821.39c.14,2.19-1.85,2.32-3.01,3.4-.45-.41-.87-.67-1.13-1.04-.58-.82-.45-1.67.42-1.99,1.16-.42,2.36-1.08,3.72-.36Z"/><path d="m254.94,825.7c.22,2.2-.12,2.95-1.2,2.89-.75-.04-1.68-.98-1.71-1.73-.04-1.08.65-1.38,2.91-1.16Z"/><path d="m368.06,895.07c.2-1,.15-1.54.38-1.71.63-.46,1.35-.9,2.1-1.08.43-.1,1.12.18,1.44.53.54.58.01,1.13-.5,1.33-.93.36-1.93.54-3.41.93Z"/><path d="m312.17,855.38c-.92-.9-1.63-1.68-.79-2.51,1.07-1.05,2,.07,3.33.49-.99.79-1.7,1.35-2.54,2.02Z"/><path d="m347.54,799.75c.61-.89,1.17-1.81,1.83-2.66,1.44-1.84,2.98-3.61,4.4-5.47,2.21-2.88,4.45-5.74,6.51-8.73,3.3-4.81,5.63-10.14,7.93-15.47.57-1.34,1.24-2.63,1.85-3.95,2.28-4.97,4.77-9.83,6.59-15.03,1.32-3.78,3.23-7.36,4.33-11.26.96-3.42.86-6.79.63-10.3-.32-5.04-2.97-9.16-4.55-13.7-.13-.37-.24-.74-.52-1.65.65.58.99.78,1.21,1.08,2.26,3.08,4.15,6.27,4.93,10.15,1.34,6.71.85,13.16-1.78,19.47-1.39,3.34-2.65,6.73-4.09,10.05-1.73,4-3.6,7.94-5.4,11.91-1.97,4.34-3.78,8.76-5.95,13-2.4,4.68-5.32,9.04-8.88,12.96-1.63,1.79-2.98,3.83-4.54,5.68-1.25,1.49-2.62,2.87-3.94,4.3-.18-.13-.36-.25-.53-.38Z"/><path d="m194.31,471.38c-1.06-.61-1.87-1.04-2.63-1.53-4.1-2.67-8.72-4.21-13.17-6.11-1.48-.64-3-1.24-4.56-1.63-3.26-.82-6.57-.92-9.87-.14-5.94,1.4-11.88,2.84-17.82,4.24-.44.1-.9.09-1.64.16.41-.48.57-.81.82-.95,5.28-2.87,10.8-5.08,16.78-6.02,1.99-.31,3.96-.82,5.96-.93,3.18-.18,6.28.51,9.17,1.84,2.27,1.04,4.46,2.28,6.64,3.52,2.88,1.63,5.72,3.32,8.54,5.05.78.48,1.64,1.01,1.78,2.51Z"/><path d="m366.22,790.09c.12-.51.17-1.04.36-1.52,1.73-4.5,3.54-8.96,5.2-13.48.72-1.95,1.13-4.01,1.72-6.01.5-1.69.92-3.42,1.62-5.02,2.26-5.16,4.62-10.26,6.96-15.38.3-.66.67-1.28,1.19-2.26.19.67.49,1.12.37,1.39-2.2,5.1-3.78,10.44-6.36,15.4-1.13,2.17-1.83,4.55-2.25,7.07-.55,3.3-1.76,6.53-3.04,9.65-1.31,3.19-3.04,6.21-4.61,9.29-.2.38-.54.69-.82,1.03-.11-.05-.22-.1-.34-.16Z"/><path d="m332.77,663.82c4.48,3.49,8.96,6.99,13.45,10.48.82.64,1.7,1.22,2.55,1.82,3.12,2.22,5.74,5.96,6.53,9.47-.52-.31-.97-.47-1.26-.78-1.2-1.31-2.53-2.55-3.48-4.02-1.32-2.04-3.21-3.34-5.13-4.67-.53-.37-.94-.9-1.44-1.32-2.6-2.18-5.22-4.34-7.82-6.52-1.41-1.19-2.8-2.41-3.82-3.96.14-.17.28-.34.42-.51Z"/><path d="m375.47,792.53c.25-1.39.51-2.78.73-4.18.28-1.74.41-3.52.8-5.23.51-2.26,1.11-4.51,1.84-6.7,1.24-3.72,2.61-7.39,3.98-11.23.43.06.75.23.55,1.03-.92,3.65-1.98,7.25-3.07,10.85-.93,3.07-1.76,6.17-1.74,9.47.02,2.27-1.21,4.25-2.49,6.08-.2-.03-.4-.06-.6-.09Z"/><path d="m250.86,482.17c-1.32,1.28-2.65,2.54-3.95,3.83-1.08,1.07-2.15,2.13-3.18,3.25-1.64,1.78-3.24,3.61-4.87,5.41-1.74,1.92-3.48,3.83-5.26,5.72-.35.37-.84.59-1.76,1.21.25-.89.26-1.3.45-1.54,1.45-1.83,2.88-3.67,4.42-5.43,2.77-3.17,5.58-6.3,8.42-9.41,1.47-1.6,3.42-2.53,5.23-3.65.16.21.33.41.49.62Z"/><path d="m219.26,553.6c-2.37-2.28-4.13-12.39-3.28-18.18.34.51.78.86.81,1.25.51,5.61,2.94,10.95,2.47,16.92Z"/><path d="m256.48,613.6c-4.06-1.1-10.31-8.58-12.2-14.34,2.76,2.31,4.15,5.11,6.07,7.46,1.94,2.38,4.08,4.59,6.13,6.88Z"/><path d="m260.61,245.95c.13,7.49.29,14.98.37,22.46.01,1.52-.21,3.06-.49,4.56-.76,4.11-1.52,8.23-2.45,12.31-.89,3.91-1.5,7.89-3.36,11.55-1.16,2.28-2.51,4.33-4.38,6.09-1.48,1.39-2.66,3.09-4.12,4.5-2.28,2.19-4.61,4.36-7.07,6.35-3.97,3.22-8.16,6.09-13,7.91-1.28.48-2.48,1.17-3.7,1.8-3.83,1.96-7.7,3.66-12.13,3.83-3.71.14-7.4.73-11.11.87-1.91.08-3.84-.39-5.76-.6-3.92-.42-7.44-2.32-11.31-3.06-2.23-.42-4.39-1.6-6.39-2.76-4.62-2.69-9.24-5.4-13.63-8.45-2.98-2.07-5.63-4.65-8.31-7.13-3.95-3.65-7.42-7.72-10.48-12.17-2.64-3.82-3.98-8.11-4.93-12.54-1.15-5.4-1.77-10.88-1.49-16.41.13-2.49.57-4.95.87-7.43.05-.4.09-.81.08-1.22-.1-3.76.69-7.39,1.64-10.98,2.07-7.86,4.21-15.7,6.38-23.53.58-2.08,1.49-4.07,2.06-6.16.67-2.49,1.18-5.03,1.68-7.56.89-4.47,6-8.16,10.44-6.84.42.12.91.01,1.36.02,1.84.03,3.69.05,5.53.1,5.31.15,10.31,1.94,15.35,3.24,5.51,1.42,10.97,3.22,15.92,6.31,5.74,3.6,11.53,7.15,17.96,9.47,2.76,1,5.59,1.45,8.49,1.74.49.05,1.66-.75,1.53.76,0,.05.24.17.37.17,3.09-.08,6.18-.22,9.27-.24,3.89-.02,7.78-.05,11.67.15,1.82.09,3.61.72,5.42,1.08,3.28.65,6.66,5.91,6.7,8.98.03,1.91.62,3.82.73,5.74.14,2.35.03,4.72.03,7.08.09,0,.18,0,.27,0Zm-99.2-42.19c-.9,0-1.8-.06-2.69,0-4.45.33-7.45,5-5.47,8.71,1.33,2.48,3.03,4.7,6.4,4.35.38-.04.79.17,1.18.22,2.08.25,4.16.58,6.25.72,3.24.21,6.47.02,9.73.42,5.16.63,9.94,2.15,14.33,4.8,2.63,1.59,5.06,3.51,7.55,5.32,1.89,1.38,3.66,2.94,5.63,4.2,2.66,1.7,5.59,2.87,8.68,3.6.85.2,1.79.37,2.63.24,1.9-.3,3.77-.78,5.65-1.22,4.38-1.02,8.74-2.12,13.14-3.05,1.72-.36,3.55-.59,5.28-.42,3.37.32,6.61,1.33,9.89,2.17,1.79.46,3.72,1.17,5.69.17.79-.4,1.17-.78,1.12-1.62-.17-2.95-1.57-4.64-4.44-5.67-4.37-1.57-8.92-1.2-13.29-.71-4.46.5-8.77-.34-13.15-.26-1.84.03-3.69-.41-5.53-.73-5.32-.92-9.64-4.06-14.21-6.59-5.93-3.27-11.51-7.2-18.09-9.23-1.44-.44-2.88-.64-4.31-1-3.28-.82-6.51-1.83-9.76-2.72-3.99-1.1-8.08-1.54-12.2-1.71Z"/><path d="m339.2,497.13c.33.2.7.34.97.6,2.43,2.35,4.21,5.14,5.07,8.4,1.06,4.03,1.93,8.11,2.89,12.16.02.08.04.16.05.24.19,2.58.38,5.16.54,7.74.02.38-.09.78-.37,1.21-2.04-10.39-4.75-20.54-9.6-30.01.15-.12.3-.23.45-.35Z"/><path d="m244.72,175.77c-1.15.5-2.25,1.17-3.45,1.46-2.02.48-4.1.85-6.17,1.01-3.55.28-7.12.46-10.68.48-2.32.01-4.65-.34-7.02-.53.41-1.44,1.45-1.07,2.26-1.07,4.16-.03,8.31,0,12.47-.02,3.89-.01,7.66-.84,11.41-1.81.29-.08.61-.06.92-.08.09.18.18.37.26.55Z"/><path d="m240.68,180.78c-3.02,1.97-12.09,2.77-18.08,1.55,1.22-.3,2.2-.75,3.18-.76,4.76-.04,9.53.06,14.22-1,.19-.04.43.13.68.21Z"/><path d="m345.87,552.2c-1.51,2.64-3,5.28-4.53,7.9-.85,1.45-1.73,2.89-2.68,4.27-.32.46-.9.75-1.64,1.35,1.42-5.07,6.28-12.33,8.85-13.51Z"/><path d="m236.67,185.18c-1.64,1.88-4.48,2.12-8.94.82,2.83-.26,5.66-.52,8.94-.82Z"/><path d="m210.39,756.37c.16.28.4.54.48.85,2,7.94,4.45,15.81,5.86,23.86,1.53,8.78,4.19,17.2,6.54,25.73,1.27,4.59,2.9,9.06,5.32,13.2.24.41.39.89.53,1.35.91,3.21,2.35,6.13,4.28,8.88,1.26,1.79,2.03,3.93,3.02,5.92-.16.13-.32.26-.48.39-.5-.43-1.1-.79-1.5-1.31-3.07-4.05-6.15-8.1-7.26-13.23-.12-.54-.36-1.08-.64-1.56-2.5-4.29-3.9-9.01-5.32-13.7-1.86-6.14-3.58-12.33-5.23-18.53-.61-2.32-.83-4.74-1.25-7.12-.5-2.85-.99-5.71-1.56-8.55-.75-3.78-1.57-7.55-2.38-11.31-.25-1.17-.61-2.32-.86-3.5-.08-.36.03-.75.06-1.13.12-.08.25-.15.37-.23Z"/><path d="m221.3,823.92c-1.54-3.09-2.44-6.39-3.14-9.77-.22-1.09-.6-2.16-.97-3.21-.89-2.49-1.92-4.93-2.71-7.45-1.06-3.36-1.96-6.78-2.9-10.18-.42-1.54-.8-3.1-1.1-4.68-.07-.36.3-.8.6-1.53,1.19,3.97,2.17,7.58,3.37,11.12,1.44,4.26,2.55,8.61,4.57,12.71,1.29,2.61,1.6,5.71,2.26,8.61.32,1.39.42,2.83.62,4.25-.2.04-.4.08-.59.12Z"/><path d="m207.82,799.82c.17.26.42.5.51.79,1.86,5.89,3.99,11.7,5.07,17.81.32,1.83.51,3.7.5,5.55,0,1.75-.35,3.51-.85,5.28-.75-4.89-1.34-9.81-2.29-14.66-.97-4.92-2.31-9.77-3.49-14.65.18-.04.37-.08.55-.12Z"/><path d="m408.92,209.96c-.7.49-1.33,1.15-2.11,1.45-9.14,3.63-18.17,7.63-28.22,8.37.02-.27.02-.35.04-.42.01-.08.03-.21.07-.22,10.15-2.63,19.89-6.52,29.82-9.83.13.21.26.43.4.64Z"/><path d="m380.06,252.89c-1.17,1.23-2.28,2.4-3.45,3.64.81,1.34,1.94,1.21,2.94.62,1.59-.94,3.11-1.99,4.58-3.11,1.97-1.51,3.95-2.96,6.59-4.02-.69,2.19-2.12,3.48-3.54,4.62-2.13,1.7-4.4,3.25-6.74,4.67-2.05,1.24-3.54.96-5.03-.56-1.09-1.11-1.38-2.62-.28-3.68,1.18-1.14,2.73-1.9,4.15-2.77.09-.06.47.36.78.6Z"/><path d="m215.21,232.21c-3.91.62-7.4-.41-10.51-2.56-4.59-3.17-9.07-6.48-13.64-9.67-3.23-2.26-6.76-3.75-10.76-3.98-5.11-.3-10.21-.69-15.32-.94-2.23-.11-4.26-.8-6.28-1.59-1.22-.47-2.34-1.32-2.15-2.62.21-1.42.33-3.12,2.03-3.88,2.09-.93,4.12-1.65,6.53-1.08,1.95.46,4.01.46,6.02.63.89.07,1.56.28,1.55,1.2-2.83-.01-5.56-.11-8.28,0-1.34.06-2.68.45-4,.79-.72.18-1.33.57-1.33,1.5,0,.92.54,1.28,1.28,1.55,1.89.7,3.78,1.39,5.86,1.34,2.29-.05,4.59-.19,6.85.03,3.94.37,7.9.77,11.77,1.57,3.54.74,6.41,2.98,9.22,5.21,3.3,2.6,6.73,5.03,10.01,7.65,1.95,1.55,4.18,2.38,6.48,3.16,1.57.53,3.13,1.13,4.69,1.7Z"/></g></svg>